<?xml version="1.0" encoding="UTF-8"?>
<svg width="1440px" height="1512px" viewBox="0 0 1440 1512" version="1.1" xmlns="http://www.w3.org/2000/svg" xmlns:xlink="http://www.w3.org/1999/xlink">
    <!-- Generator: Sketch 49.3 (51167) - http://www.bohemiancoding.com/sketch -->
    <title>Desktop HD Copy 2big</title>
    <desc>Created with Sketch.</desc>
    <defs>
        <polygon id="path-1" points="0 0 135.797742 0 135.797742 240.271675 0 240.271675"></polygon>
    </defs>
    <g id="Desktop-HD-Copy-2" stroke="none" stroke-width="1" fill="none" fill-rule="evenodd">
        <g id="Group-4" transform="translate(45.000000, 29.000000)">
            <g id="face" transform="translate(229.000000, 0.000000)">
                <path d="M34.6766608,941.027787 C-49.945307,751.577606 41.6257444,484.654358 84.0394753,345.612934 C126.453206,206.571511 146.181722,148.160651 218.024258,81.7358972 C289.866793,15.3111438 359.060871,3.66576788 464.83833,0.542962711 C570.61579,-2.57984246 610.412372,6.21542671 676.39325,68.2037414 C742.374128,130.192056 752.13473,212.392307 803.326202,318.548623 C854.517673,424.704939 859.740847,462.242784 873.844508,563.733952 C887.948169,665.22512 895,792.174074 895,913.963475 C895,1035.75288 619.978605,1157.54228 521.252976,1164.30836 C422.527346,1171.07443 119.298629,1130.47797 34.6766608,941.027787 Z" id="Path-5" stroke="#000000" stroke-width="4" fill="#008F8A"></path>
                <path d="M595.309001,758.284024 C591.375409,815.569192 592.69354,855.078867 599.263394,876.813049 C609.118175,909.414321 664.032258,952.642176 664.032258,952.642176 C664.032258,952.642176 577.785881,999.556213 451.233315,999.556213 C411.397375,999.556213 345.193259,983.918201 252.620968,952.642176 C277.376252,936.965407 293.927281,916.859391 302.274055,892.324129 C310.620828,867.788866 315.349694,825.342833 316.460651,764.986029" id="Path-9" stroke="#000000" fill="#FFFFFF"></path>
                <path d="M166.008065,428.770873 C172.950448,480.273261 177.64198,511.765106 180.082661,523.246409 C189.268625,566.458453 200.674601,664.461112 257.492944,718.945731 C313.791331,772.931751 412.531623,831.952816 454.537298,826.917772 C567.134073,813.421267 659.067775,717.901376 686.768145,671.707964 C708.560062,635.367547 722.634659,549.889681 728.991935,415.274368 C642.477581,383.796922 579.141895,352.305077 538.984879,320.798833 C498.827863,289.29259 458.949838,239.805405 419.350806,172.337278 C378.03473,255.396744 342.848238,311.632181 313.791331,341.043591 C284.734424,370.455001 235.473335,399.697428 166.008065,428.770873 Z" id="Path-12" stroke="#000000" stroke-width="4" fill="#FFEADA"></path>
                <g id="Group" transform="translate(534.112903, 439.542125)" fill="#000000">
                    <ellipse id="Oval" cx="36.0887097" cy="34.4674556" rx="36.0887097" ry="34.4674556"></ellipse>
                </g>
                <g id="Group-Copy" transform="translate(303.145161, 474.009580) scale(-1, 1) translate(-303.145161, -474.009580) translate(267.056452, 439.542125)" fill="#000000">
                    <ellipse id="Oval" cx="36.0887097" cy="34.4674556" rx="36.0887097" ry="34.4674556"></ellipse>
                </g>
                <path d="M498.024194,395.062694 C528.895452,387.934081 550.548678,383.468102 562.983871,381.664756 C575.419064,379.861409 601.884118,384.327388 642.379032,395.062694" id="Path-15" stroke="#000000" stroke-width="7" stroke-linecap="round"></path>
                <path d="M353.669355,403.316981 C318.769138,401.502586 294.709999,401.502586 281.491935,403.316981 C268.273872,405.131375 249.026561,411.571268 223.75,422.636658" id="Path-16" stroke="#000000" stroke-width="7" stroke-linecap="round"></path>
                <path d="" id="Path-17" stroke="#979797"></path>
                <path d="M404.193548,585.946746 C421.034946,576.755424 434.267473,572.159763 443.891129,572.159763 C453.514785,572.159763 466.747312,576.755424 483.58871,585.946746" id="Path-14" stroke="#000000" stroke-width="3" stroke-linecap="round"></path>
                <path d="M419.505421,178.215554 C412.743571,224.172161 419.019051,260.937447 438.331861,288.511412 C457.644671,316.085376 476.957482,334.468019 496.270292,343.659341" id="Path-4" stroke="#000000" stroke-width="7" stroke-linecap="round"></path>
                <path d="M389.758065,710.029586 L519.677419,710.029586" id="Path-2" stroke="#000000" stroke-linecap="round"></path>
            </g>
            <g id="glasses" transform="translate(425.000000, 424.000000)" stroke="#FFDB9A">
                <path d="M110.789578,168 C162.509676,168 194.768211,128.766467 204.68383,79.4730539 C214.59945,30.1796407 162.756407,0 111.03631,0 C59.3162123,0 5.26969835,31.1856287 17.3887892,79.4730539 C29.5078801,127.760479 59.069481,168 110.789578,168 Z" id="Oval-3" stroke-width="5"></path>
                <path d="M395.037588,168 C446.757685,168 479.01622,128.766467 488.93184,79.4730539 C498.84746,30.1796407 447.004417,0 395.284319,0 C343.564222,0 289.517708,31.1856287 301.636799,79.4730539 C313.75589,127.760479 343.31749,168 395.037588,168 Z" id="Oval-3-Copy" stroke-width="5"></path>
                <path d="M205.911944,71.0769231 C225.586153,62.4615385 240.880337,58.1538462 251.794496,58.1538462 C262.708656,58.1538462 278.00284,62.4615385 297.677049,71.0769231" id="Path-13" stroke-width="5" stroke-linecap="round"></path>
                <path d="M488.451874,50.6153846 L501.880913,50.6153846" id="Line-5" stroke-width="7" stroke-linecap="round"></path>
                <path d="M1.11908665,50.6153846 L14.5481265,50.6153846" id="Line-5-Copy" stroke-width="7" stroke-linecap="round"></path>
            </g>
            <g id="Group-3" transform="translate(0.000000, 597.000000)">
                <rect id="Rectangle" fill="#E5E5E5" x="0" y="0" width="1351" height="862" rx="27"></rect>
                <g id="Group-2" transform="translate(604.654878, 299.969407)">
                    <g id="Page-1">
                        <mask id="mask-2" fill="white">
                            <use xlink:href="#path-1"></use>
                        </mask>
                        <g id="Clip-2"></g>
                        <path d="M100.694889,93.5617149 C96.5762737,67.6941159 84.2204285,62.2358152 75.1567296,61.0492281 C84.7668314,58.4387365 93.2813816,53.4550706 100.14574,46.0982306 C109.206693,36.6055337 112.773414,24.7396626 111.677862,13.3484264 C98.4955483,14.7723309 85.8678745,20.467949 76.8069214,30.1979633 C72.4109862,34.9443118 69.1188399,40.165295 67.1968195,45.6235957 C64.4510761,41.826517 60.6042897,38.0294382 55.390123,34.7069943 L49.0749132,42.0638344 C58.4104407,48.2340874 62.2544814,56.7775145 64.1765018,61.0492281 C55.1128029,61.2865456 39.7393857,64.371672 35.071622,93.7990323 C29.5801352,128.447376 -2.81963664,130.82055 0.197935334,173.537686 C1.84812711,196.082841 21.3429051,218.627996 48.2484445,225.984836 C56.4856746,228.35801 63.0782045,225.510201 68.0205425,225.272884 C72.9601349,225.272884 79.8244933,228.120693 87.7898949,225.747519 C114.69818,218.153361 134.190212,196.320158 135.563084,173.300369 C138.857976,130.82055 106.46095,128.447376 100.694889,93.5617149" id="Fill-1" fill="#FFFFFF" mask="url(#mask-2)"></path>
                    </g>
                    <ellipse id="Oval-2" fill="#E5E5E5" cx="144.111889" cy="162.850802" rx="44.3421197" ry="42.7149645"></ellipse>
                </g>
            </g>
            <circle id="Oval-7" stroke="#000000" stroke-width="0.5" fill="#FF537B" cx="1115.5" cy="1249.5" r="119.5"></circle>
            <path d="M1069.87338,1211.43901 L1069.87338,1243.10701 L1061.64138,1243.10701 L1061.64138,1211.43901 L1069.87338,1211.43901 Z M1079.27538,1211.43901 L1086.45738,1211.43901 L1078.72938,1225.38301 L1073.85738,1225.38301 L1079.27538,1211.43901 Z M1090.35738,1221.56101 L1097.95938,1221.56101 L1097.95938,1224.20701 C1100.03139,1222.219 1102.35537,1221.22501 1104.93138,1221.22501 C1108.1234,1221.22501 1110.55937,1222.569 1112.23938,1225.25701 C1113.94739,1222.541 1116.38336,1221.18301 1119.54738,1221.18301 C1120.55539,1221.18301 1121.50738,1221.33001 1122.40338,1221.62401 C1123.29939,1221.91801 1124.06938,1222.38001 1124.71338,1223.01001 C1125.35738,1223.64001 1125.86838,1224.459 1126.24638,1225.46701 C1126.62438,1226.47501 1126.81338,1227.693 1126.81338,1229.12101 L1126.81338,1243.10701 L1119.21138,1243.10701 L1119.21138,1232.48101 C1119.21138,1231.389 1119.13438,1230.49301 1118.98038,1229.79301 C1118.82638,1229.09301 1118.60238,1228.54701 1118.30838,1228.15501 C1118.01438,1227.76301 1117.67138,1227.49701 1117.27938,1227.35701 C1116.88738,1227.21701 1116.46738,1227.14701 1116.01938,1227.14701 C1113.58337,1227.14701 1112.36538,1228.92499 1112.36538,1232.48101 L1112.36538,1243.10701 L1104.76338,1243.10701 L1104.76338,1232.48101 C1104.76338,1231.389 1104.69338,1230.48601 1104.55338,1229.77201 C1104.41338,1229.05801 1104.21038,1228.49101 1103.94438,1228.07101 C1103.67838,1227.65101 1103.33538,1227.36401 1102.91538,1227.21001 C1102.49538,1227.05601 1102.00538,1226.97901 1101.44538,1226.97901 C1100.96938,1226.97901 1100.52138,1227.04901 1100.10138,1227.18901 C1099.68138,1227.32901 1099.31038,1227.60201 1098.98838,1228.00801 C1098.66638,1228.41401 1098.41438,1228.97401 1098.23238,1229.68801 C1098.05038,1230.40201 1097.95938,1231.333 1097.95938,1232.48101 L1097.95938,1243.10701 L1090.35738,1243.10701 L1090.35738,1221.56101 Z M1151.49738,1232.27101 C1151.49738,1232.97101 1151.62338,1233.62201 1151.87538,1234.22401 C1152.12738,1234.82601 1152.47038,1235.35101 1152.90438,1235.79901 C1153.33838,1236.24701 1153.85638,1236.59701 1154.45838,1236.84901 C1155.06038,1237.10101 1155.71138,1237.22701 1156.41138,1237.22701 C1157.08338,1237.22701 1157.72038,1237.10101 1158.32238,1236.84901 C1158.92438,1236.59701 1159.44238,1236.24701 1159.87638,1235.79901 C1160.31038,1235.35101 1160.66038,1234.83301 1160.92638,1234.24501 C1161.19238,1233.65701 1161.32538,1233.02701 1161.32538,1232.35501 C1161.32538,1231.68301 1161.19238,1231.04601 1160.92638,1230.44401 C1160.66038,1229.84201 1160.31038,1229.31701 1159.87638,1228.86901 C1159.44238,1228.42101 1158.92438,1228.07101 1158.32238,1227.81901 C1157.72038,1227.56701 1157.08338,1227.44101 1156.41138,1227.44101 C1155.71138,1227.44101 1155.06038,1227.56701 1154.45838,1227.81901 C1153.85638,1228.07101 1153.33838,1228.42101 1152.90438,1228.86901 C1152.47038,1229.31701 1152.12738,1229.82801 1151.87538,1230.40201 C1151.62338,1230.97601 1151.49738,1231.59901 1151.49738,1232.27101 Z M1161.07338,1221.56101 L1168.71738,1221.56101 L1168.71738,1243.10701 L1161.07338,1243.10701 L1161.07338,1240.71301 C1159.44937,1242.75702 1157.25139,1243.77901 1154.47938,1243.77901 C1152.91137,1243.77901 1151.46939,1243.49201 1150.15338,1242.91801 C1148.83737,1242.34401 1147.68939,1241.53901 1146.70938,1240.50301 C1145.72938,1239.467 1144.96638,1238.24902 1144.42038,1236.84901 C1143.87438,1235.449 1143.60138,1233.92302 1143.60138,1232.27101 C1143.60138,1230.731 1143.86738,1229.26802 1144.39938,1227.88201 C1144.93138,1226.496 1145.67338,1225.28501 1146.62538,1224.24901 C1147.57739,1223.213 1148.71137,1222.39401 1150.02738,1221.79201 C1151.34339,1221.19001 1152.79937,1220.88901 1154.39538,1220.88901 C1157.08339,1220.88901 1159.30937,1221.827 1161.07338,1223.70301 L1161.07338,1221.56101 Z M1030.02138,1278.13501 L1031.91138,1278.13501 C1033.33939,1278.13501 1034.61338,1277.91101 1035.73338,1277.46301 C1036.85339,1277.01501 1037.79838,1276.39901 1038.56838,1275.61501 C1039.33838,1274.83101 1039.92638,1273.90001 1040.33238,1272.82201 C1040.73838,1271.744 1040.94138,1270.56102 1040.94138,1269.27301 C1040.94138,1268.013 1040.73138,1266.83701 1040.31138,1265.74501 C1039.89138,1264.653 1039.29638,1263.71501 1038.52638,1262.93101 C1037.75638,1262.14701 1036.81139,1261.53101 1035.69138,1261.08301 C1034.57138,1260.63501 1033.31139,1260.41101 1031.91138,1260.41101 L1030.02138,1260.41101 L1030.02138,1278.13501 Z M1021.78938,1253.43901 L1033.96938,1253.43901 C1036.12539,1253.43901 1038.14837,1253.873 1040.03838,1254.74101 C1041.92839,1255.60901 1043.58037,1256.764 1044.99438,1258.20601 C1046.40839,1259.64802 1047.52138,1261.328 1048.33338,1263.24601 C1049.14538,1265.16402 1049.55138,1267.173 1049.55138,1269.27301 C1049.55138,1271.34502 1049.15238,1273.34 1048.35438,1275.25801 C1047.55638,1277.17602 1046.45039,1278.863 1045.03638,1280.31901 C1043.62237,1281.77502 1041.97039,1282.937 1040.08038,1283.80501 C1038.19037,1284.67301 1036.15339,1285.10701 1033.96938,1285.10701 L1021.78938,1285.10701 L1021.78938,1253.43901 Z M1068.90738,1271.20501 C1068.65538,1270.141 1068.13738,1269.28701 1067.35338,1268.64301 C1066.56938,1267.99901 1065.61739,1267.67701 1064.49738,1267.67701 C1063.32137,1267.67701 1062.36238,1267.98501 1061.62038,1268.60101 C1060.87838,1269.21701 1060.40938,1270.085 1060.21338,1271.20501 L1068.90738,1271.20501 Z M1060.00338,1275.61501 C1060.00338,1278.89103 1061.54337,1280.52901 1064.62338,1280.52901 C1066.27539,1280.52901 1067.52138,1279.85702 1068.36138,1278.51301 L1075.71138,1278.51301 C1074.22737,1283.44103 1070.51741,1285.90501 1064.58138,1285.90501 C1062.76137,1285.90501 1061.09539,1285.63201 1059.58338,1285.08601 C1058.07137,1284.54001 1056.77639,1283.76301 1055.69838,1282.75501 C1054.62038,1281.747 1053.78738,1280.54302 1053.19938,1279.14301 C1052.61138,1277.743 1052.31738,1276.17502 1052.31738,1274.43901 C1052.31738,1272.647 1052.59738,1271.03002 1053.15738,1269.58801 C1053.71738,1268.146 1054.51538,1266.92101 1055.55138,1265.91301 C1056.58739,1264.905 1057.84037,1264.12801 1059.31038,1263.58201 C1060.78039,1263.03601 1062.43937,1262.76301 1064.28738,1262.76301 C1066.10739,1262.76301 1067.74537,1263.03601 1069.20138,1263.58201 C1070.65739,1264.12801 1071.88938,1264.919 1072.89738,1265.95501 C1073.90539,1266.99101 1074.67538,1268.258 1075.20738,1269.75601 C1075.73938,1271.25402 1076.00538,1272.941 1076.00538,1274.81701 L1076.00538,1275.61501 L1060.00338,1275.61501 Z M1093.68138,1269.10501 C1092.28137,1268.37701 1090.90939,1268.01301 1089.56538,1268.01301 C1088.86538,1268.01301 1088.29838,1268.15301 1087.86438,1268.43301 C1087.43038,1268.71301 1087.21338,1269.09101 1087.21338,1269.56701 C1087.21338,1269.81901 1087.24838,1270.02201 1087.31838,1270.17601 C1087.38838,1270.33001 1087.54238,1270.47701 1087.78038,1270.61701 C1088.01838,1270.75701 1088.36838,1270.88301 1088.83038,1270.99501 C1089.29238,1271.10701 1089.90138,1271.24701 1090.65738,1271.41501 C1092.75739,1271.83501 1094.32538,1272.584 1095.36138,1273.66201 C1096.39739,1274.74001 1096.91538,1276.119 1096.91538,1277.79901 C1096.91538,1279.05902 1096.66338,1280.193 1096.15938,1281.20101 C1095.65538,1282.20901 1094.95539,1283.05601 1094.05938,1283.74201 C1093.16338,1284.42801 1092.08539,1284.96001 1090.82538,1285.33801 C1089.56537,1285.71601 1088.17939,1285.90501 1086.66738,1285.90501 C1083.75537,1285.90501 1080.88539,1285.07902 1078.05738,1283.42701 L1080.82938,1278.05101 C1082.95739,1279.50702 1084.97337,1280.23501 1086.87738,1280.23501 C1087.57738,1280.23501 1088.15138,1280.08101 1088.59938,1279.77301 C1089.04738,1279.46501 1089.27138,1279.07301 1089.27138,1278.59701 C1089.27138,1278.31701 1089.23638,1278.08601 1089.16638,1277.90401 C1089.09638,1277.72201 1088.94938,1277.55401 1088.72538,1277.40001 C1088.50138,1277.24601 1088.17238,1277.10601 1087.73838,1276.98001 C1087.30438,1276.85401 1086.73738,1276.72101 1086.03738,1276.58101 C1083.68537,1276.10501 1082.04039,1275.39801 1081.10238,1274.46001 C1080.16438,1273.522 1079.69538,1272.22702 1079.69538,1270.57501 C1079.69538,1269.371 1079.91938,1268.28601 1080.36738,1267.32001 C1080.81538,1266.354 1081.45938,1265.53501 1082.29938,1264.86301 C1083.13938,1264.19101 1084.15437,1263.67301 1085.34438,1263.30901 C1086.53439,1262.94501 1087.85737,1262.76301 1089.31338,1262.76301 C1091.69339,1262.76301 1094.00337,1263.225 1096.24338,1264.14901 L1093.68138,1269.10501 Z M1107.45138,1263.56101 L1107.45138,1285.10701 L1099.84938,1285.10701 L1099.84938,1263.56101 L1107.45138,1263.56101 Z M1099.34538,1255.28701 C1099.34538,1254.69901 1099.45738,1254.14601 1099.68138,1253.62801 C1099.90538,1253.11001 1100.21338,1252.65501 1100.60538,1252.26301 C1100.99738,1251.87101 1101.45238,1251.56301 1101.97038,1251.33901 C1102.48838,1251.11501 1103.04138,1251.00301 1103.62938,1251.00301 C1104.21738,1251.00301 1104.77038,1251.11501 1105.28838,1251.33901 C1105.80638,1251.56301 1106.26138,1251.87101 1106.65338,1252.26301 C1107.04538,1252.65501 1107.35338,1253.11001 1107.57738,1253.62801 C1107.80138,1254.14601 1107.91338,1254.69901 1107.91338,1255.28701 C1107.91338,1255.87501 1107.80138,1256.42801 1107.57738,1256.94601 C1107.35338,1257.46401 1107.04538,1257.91901 1106.65338,1258.31101 C1106.26138,1258.70301 1105.80638,1259.01101 1105.28838,1259.23501 C1104.77038,1259.45901 1104.21738,1259.57101 1103.62938,1259.57101 C1103.04138,1259.57101 1102.48838,1259.45901 1101.97038,1259.23501 C1101.45238,1259.01101 1100.99738,1258.70301 1100.60538,1258.31101 C1100.21338,1257.91901 1099.90538,1257.46401 1099.68138,1256.94601 C1099.45738,1256.42801 1099.34538,1255.87501 1099.34538,1255.28701 Z M1118.78538,1274.22901 C1118.78538,1274.92901 1118.91138,1275.58001 1119.16338,1276.18201 C1119.41538,1276.78401 1119.75838,1277.30901 1120.19238,1277.75701 C1120.62638,1278.20501 1121.14438,1278.55501 1121.74638,1278.80701 C1122.34838,1279.05901 1122.99938,1279.18501 1123.69938,1279.18501 C1124.37138,1279.18501 1125.00838,1279.05901 1125.61038,1278.80701 C1126.21238,1278.55501 1126.73038,1278.20501 1127.16438,1277.75701 C1127.59838,1277.30901 1127.94838,1276.78401 1128.21438,1276.18201 C1128.48038,1275.58001 1128.61338,1274.94301 1128.61338,1274.27101 C1128.61338,1273.57101 1128.48038,1272.92701 1128.21438,1272.33901 C1127.94838,1271.75101 1127.59138,1271.23301 1127.14338,1270.78501 C1126.69538,1270.33701 1126.17038,1269.98701 1125.56838,1269.73501 C1124.96638,1269.48301 1124.34338,1269.35701 1123.69938,1269.35701 C1123.02738,1269.35701 1122.39738,1269.49001 1121.80938,1269.75601 C1121.22138,1270.02201 1120.70338,1270.37201 1120.25538,1270.80601 C1119.80738,1271.24001 1119.45038,1271.75101 1119.18438,1272.33901 C1118.91838,1272.92701 1118.78538,1273.55701 1118.78538,1274.22901 Z M1135.83738,1263.56101 L1135.83738,1283.63701 C1135.83738,1284.84102 1135.76738,1285.919 1135.62738,1286.87101 C1135.48738,1287.82301 1135.29138,1288.66301 1135.03938,1289.39101 C1134.70338,1290.31501 1134.17838,1291.17601 1133.46438,1291.97401 C1132.75038,1292.77201 1131.88939,1293.46501 1130.88138,1294.05301 C1129.87338,1294.64101 1128.73239,1295.10301 1127.45838,1295.43901 C1126.18437,1295.77501 1124.80539,1295.94301 1123.32138,1295.94301 C1121.64137,1295.94301 1120.10139,1295.73301 1118.70138,1295.31301 C1117.30137,1294.89301 1116.07639,1294.31201 1115.02638,1293.57001 C1113.97638,1292.82801 1113.11538,1291.96001 1112.44338,1290.96601 C1111.77138,1289.972 1111.32338,1288.88702 1111.09938,1287.71101 L1119.66738,1287.71101 C1120.19938,1289.13902 1121.40337,1289.85301 1123.27938,1289.85301 C1124.87539,1289.85301 1126.10038,1289.40501 1126.95438,1288.50901 C1127.80838,1287.613 1128.23538,1286.36702 1128.23538,1284.77101 L1128.23538,1282.71301 C1127.67538,1283.24501 1127.13638,1283.68601 1126.61838,1284.03601 C1126.10038,1284.38601 1125.57538,1284.67301 1125.04338,1284.89701 C1124.51138,1285.12101 1123.95138,1285.28201 1123.36338,1285.38001 C1122.77538,1285.47801 1122.13138,1285.52701 1121.43138,1285.52701 C1119.89137,1285.52701 1118.47739,1285.26101 1117.18938,1284.72901 C1115.90137,1284.19701 1114.78839,1283.45501 1113.85038,1282.50301 C1112.91238,1281.551 1112.18438,1280.41002 1111.66638,1279.08001 C1111.14838,1277.75 1110.88938,1276.27302 1110.88938,1274.64901 C1110.88938,1272.997 1111.16938,1271.46402 1111.72938,1270.05001 C1112.28938,1268.636 1113.05238,1267.40401 1114.01838,1266.35401 C1114.98439,1265.304 1116.13237,1264.47801 1117.46238,1263.87601 C1118.79239,1263.27401 1120.24137,1262.97301 1121.80938,1262.97301 C1124.35739,1262.97301 1126.49937,1263.925 1128.23538,1265.82901 L1128.23538,1263.56101 L1135.83738,1263.56101 Z M1140.07338,1263.56101 L1147.67538,1263.56101 L1147.67538,1266.29101 C1148.71139,1265.031 1149.76138,1264.18401 1150.82538,1263.75001 C1151.88939,1263.31601 1153.13537,1263.09901 1154.56338,1263.09901 C1156.07539,1263.09901 1157.37038,1263.34401 1158.44838,1263.83401 C1159.52639,1264.32401 1160.44338,1265.017 1161.19938,1265.91301 C1161.81538,1266.64101 1162.23538,1267.453 1162.45938,1268.34901 C1162.68338,1269.24501 1162.79538,1270.267 1162.79538,1271.41501 L1162.79538,1285.10701 L1155.19338,1285.10701 L1155.19338,1274.22901 C1155.19338,1273.165 1155.11638,1272.30401 1154.96238,1271.64601 C1154.80838,1270.98801 1154.53538,1270.46301 1154.14338,1270.07101 C1153.80738,1269.73501 1153.42938,1269.49701 1153.00938,1269.35701 C1152.58938,1269.21701 1152.14138,1269.14701 1151.66538,1269.14701 C1150.37737,1269.14701 1149.39038,1269.53201 1148.70438,1270.30201 C1148.01838,1271.07201 1147.67538,1272.171 1147.67538,1273.59901 L1147.67538,1285.10701 L1140.07338,1285.10701 L1140.07338,1263.56101 Z M1182.78138,1271.20501 C1182.52938,1270.141 1182.01138,1269.28701 1181.22738,1268.64301 C1180.44338,1267.99901 1179.49139,1267.67701 1178.37138,1267.67701 C1177.19537,1267.67701 1176.23638,1267.98501 1175.49438,1268.60101 C1174.75238,1269.21701 1174.28338,1270.085 1174.08738,1271.20501 L1182.78138,1271.20501 Z M1173.87738,1275.61501 C1173.87738,1278.89103 1175.41737,1280.52901 1178.49738,1280.52901 C1180.14939,1280.52901 1181.39538,1279.85702 1182.23538,1278.51301 L1189.58538,1278.51301 C1188.10137,1283.44103 1184.39141,1285.90501 1178.45538,1285.90501 C1176.63537,1285.90501 1174.96939,1285.63201 1173.45738,1285.08601 C1171.94537,1284.54001 1170.65039,1283.76301 1169.57238,1282.75501 C1168.49438,1281.747 1167.66138,1280.54302 1167.07338,1279.14301 C1166.48538,1277.743 1166.19138,1276.17502 1166.19138,1274.43901 C1166.19138,1272.647 1166.47138,1271.03002 1167.03138,1269.58801 C1167.59138,1268.146 1168.38938,1266.92101 1169.42538,1265.91301 C1170.46139,1264.905 1171.71437,1264.12801 1173.18438,1263.58201 C1174.65439,1263.03601 1176.31337,1262.76301 1178.16138,1262.76301 C1179.98139,1262.76301 1181.61937,1263.03601 1183.07538,1263.58201 C1184.53139,1264.12801 1185.76338,1264.919 1186.77138,1265.95501 C1187.77939,1266.99101 1188.54938,1268.258 1189.08138,1269.75601 C1189.61338,1271.25402 1189.87938,1272.941 1189.87938,1274.81701 L1189.87938,1275.61501 L1173.87738,1275.61501 Z M1193.27538,1263.56101 L1200.87738,1263.56101 L1200.87738,1267.08901 C1201.68938,1265.801 1202.68337,1264.81401 1203.85938,1264.12801 C1205.03539,1263.44201 1206.40737,1263.09901 1207.97538,1263.09901 L1208.62638,1263.09901 C1208.86438,1263.09901 1209.13738,1263.12701 1209.44538,1263.18301 L1209.44538,1270.44901 C1208.43738,1269.94501 1207.34539,1269.69301 1206.16938,1269.69301 C1204.40537,1269.69301 1203.08239,1270.218 1202.20038,1271.26801 C1201.31838,1272.31801 1200.87738,1273.851 1200.87738,1275.86701 L1200.87738,1285.10701 L1193.27538,1285.10701 L1193.27538,1263.56101 Z" id="I’m-a-Designer" fill="#FFFFFF" transform="translate(1115.617381, 1253.691009) rotate(19.000000) translate(-1115.617381, -1253.691009) "></path>
        </g>
    </g>
</svg>