<?xml version="1.0" encoding="UTF-8"?>
<svg width="1440px" height="1512px" viewBox="0 0 1440 1512" version="1.1" xmlns="http://www.w3.org/2000/svg" xmlns:xlink="http://www.w3.org/1999/xlink">
    <!-- Generator: Sketch 49.3 (51167) - http://www.bohemiancoding.com/sketch -->
    <title>Desktop HD Copy 2first</title>
    <desc>Created with Sketch.</desc>
    <defs>
        <rect id="path-1" x="112.483854" y="-35.1392169" width="60.0952212" height="317.023623" rx="4"></rect>
        <rect id="path-2" x="460.391406" y="1294.48512" width="40.0634808" height="46.72911" rx="4"></rect>
        <rect id="path-3" x="550.534238" y="1294.48512" width="40.0634808" height="46.72911" rx="4"></rect>
        <rect id="path-4" x="533" y="1342" width="70" height="24" rx="5"></rect>
        <rect id="path-5" x="450" y="1342" width="70" height="24" rx="4"></rect>
        <rect id="path-6" x="450" y="1342" width="70" height="24" rx="5"></rect>
    </defs>
    <g id="Desktop-HD-Copy-2" stroke="none" stroke-width="1" fill="none" fill-rule="evenodd">
        <g id="gradme" transform="translate(181.000000, 26.000000)">
            <ellipse id="Oval-5-Copy-4" fill="#FFDB9A" cx="513" cy="747.5" rx="510" ry="510.5"></ellipse>
            <g id="grad_me" transform="translate(0.000000, 87.000000)">
                <g id="Group-4" transform="translate(320.169223, 72.852673)">
                    <g id="face">
                        <path d="M13.9702901,399.0228 C-20.1216152,318.690484 16.7698881,205.507363 33.8572348,146.549807 C50.9445815,87.5922514 58.8926676,62.8243697 87.8360849,34.6583671 C116.779502,6.49236456 144.655927,1.55439083 187.270809,0.230231778 C229.88569,-1.09392727 245.918658,2.63551938 272.500572,28.9203446 C299.082486,55.2051698 303.014769,90.060436 323.63843,135.073762 C344.262091,180.087088 346.366367,196.004212 352.048351,239.039381 C357.730335,282.07455 360.571327,335.904551 360.571327,387.546754 C360.571327,439.188957 249.772635,490.83116 209.998746,493.700172 C170.224856,496.569183 48.0621954,479.355115 13.9702901,399.0228 Z" id="Path-5" stroke="#000000" fill="#649589"></path>
                        <path d="M239.76293,323.765976 C238.198786,348.333201 238.722925,365.277256 241.335345,374.598142 C245.253975,388.579471 267.089872,407.118099 267.089872,407.118099 C267.089872,407.118099 232.79508,427.237577 182.473038,427.237577 C166.632775,427.237577 140.307538,420.531084 103.497325,407.118099 C113.340954,400.394985 119.922263,391.772352 123.241253,381.250199 C126.560243,370.728046 128.440618,352.524709 128.882376,326.640187" id="Path-9" stroke="#000000" fill="#FFFFFF"></path>
                        <path d="M66.772468,179.880649 C69.5720228,201.93038 71.4639094,215.412992 72.4481278,220.328485 C76.1524191,238.82887 80.7519424,280.786774 103.664257,304.113289 C126.366896,327.226338 166.18447,352.495043 183.123494,350.339388 C228.528772,344.561125 265.601551,303.666169 276.77188,283.889371 C285.559592,268.330938 291.235252,231.735277 293.798859,174.102387 C258.911462,160.625939 233.370993,147.143327 217.177452,133.654551 C200.983911,120.165774 184.902875,98.9788123 168.934344,70.093665 C152.273405,105.653936 138.084256,129.730029 126.366896,142.321944 C114.649536,154.913859 94.7847264,167.433427 66.772468,179.880649 Z" id="Path-12" stroke="#000000" fill="#FFFFFF"></path>
                        <g id="Group" transform="translate(213.671898, 186.916440)" fill="#000000">
                            <ellipse id="Oval" cx="15.0238053" cy="15.0200711" rx="15.0238053" ry="15.0200711"></ellipse>
                        </g>
                        <g id="Group-Copy" transform="translate(121.383559, 202.416440) scale(-1, 1) translate(-121.383559, -202.416440) translate(105.883559, 186.916440)" fill="#000000">
                            <ellipse id="Oval" cx="15.0238053" cy="15.0200711" rx="15.0238053" ry="15.0200711"></ellipse>
                        </g>
                        <path d="M200.317404,170.227472 C212.455186,166.775834 220.968676,164.613429 225.857873,163.740258 C230.74707,162.867087 241.152446,165.029492 257.074002,170.227472" id="Path-15" stroke="#000000" stroke-width="2" stroke-linecap="round"></path>
                        <path d="M143.560806,170.666732 C129.211144,170.081052 119.318926,170.081052 113.884154,170.666732 C108.449381,171.252413 100.535607,173.331188 90.1428318,176.903059" id="Path-16" stroke="#000000" stroke-width="2" stroke-linecap="round"></path>
                        <path d="" id="Path-17" stroke="#979797"></path>
                        <path d="M163.592547,250.334518 C170.674475,245.884126 176.238847,243.658931 180.285664,243.658931 C184.33248,243.658931 189.896852,245.884126 196.978781,250.334518" id="Path-14" stroke="#000000" stroke-linecap="round"></path>
                        <path d="M168.037226,76.7692521 C165.19382,96.2397146 167.832704,111.816085 175.953879,123.498362 C184.075054,135.18064 192.196229,142.968825 200.317404,146.862917" id="Path-4" stroke="#000000" stroke-width="1.5" stroke-linecap="round"></path>
                        <path d="M146.89943,288.719144 L215.341209,288.719144" id="Path-2" stroke="#000000" stroke-linecap="round"></path>
                    </g>
                    <g id="face">
                        <path d="M13.9702901,399.0228 C-20.1216152,318.690484 16.7698881,205.507363 33.8572348,146.549807 C50.9445815,87.5922514 58.8926676,62.8243697 87.8360849,34.6583671 C116.779502,6.49236456 144.655927,1.55439083 187.270809,0.230231778 C229.88569,-1.09392727 245.918658,2.63551938 272.500572,28.9203446 C299.082486,55.2051698 303.014769,90.060436 323.63843,135.073762 C344.262091,180.087088 346.366367,196.004212 352.048351,239.039381 C357.730335,282.07455 360.571327,335.904551 360.571327,387.546754 C360.571327,439.188957 249.772635,490.83116 209.998746,493.700172 C170.224856,496.569183 48.0621954,479.355115 13.9702901,399.0228 Z" id="Path-5" stroke="#000000" stroke-width="3" fill="#008F8A"></path>
                        <path d="M239.76293,323.765976 C238.198786,348.333201 238.722925,365.277256 241.335345,374.598142 C245.253975,388.579471 267.089872,407.118099 267.089872,407.118099 C267.089872,407.118099 232.79508,427.237577 182.473038,427.237577 C166.632775,427.237577 140.307538,420.531084 103.497325,407.118099 C113.340954,400.394985 119.922263,391.772352 123.241253,381.250199 C126.560243,370.728046 128.440618,352.524709 128.882376,326.640187" id="Path-9" stroke="#000000" stroke-width="3" fill="#FFEADA"></path>
                        <path d="M66.772468,179.880649 C69.5720228,201.93038 71.4639094,215.412992 72.4481278,220.328485 C76.1524191,238.82887 80.7519424,280.786774 103.664257,304.113289 C126.366896,327.226338 166.18447,352.495043 183.123494,350.339388 C228.528772,344.561125 265.601551,303.666169 276.77188,283.889371 C285.559592,268.330938 291.235252,231.735277 293.798859,174.102387 C258.911462,160.625939 233.370993,147.143327 217.177452,133.654551 C200.983911,120.165774 184.902875,98.9788123 168.934344,70.093665 C152.273405,105.653936 138.084256,129.730029 126.366896,142.321944 C114.649536,154.913859 94.7847264,167.433427 66.772468,179.880649 Z" id="Path-12" stroke="#000000" stroke-width="3" fill="#FFEADA"></path>
                        <g id="Group" transform="translate(213.671898, 186.916440)" fill="#000000">
                            <ellipse id="Oval" cx="15.0238053" cy="15.0200711" rx="15.0238053" ry="15.0200711"></ellipse>
                        </g>
                        <g id="Group-Copy" transform="translate(121.383559, 202.416440) scale(-1, 1) translate(-121.383559, -202.416440) translate(105.883559, 186.916440)" fill="#000000">
                            <ellipse id="Oval" cx="15.0238053" cy="15.0200711" rx="15.0238053" ry="15.0200711"></ellipse>
                        </g>
                        <path d="M200.317404,170.227472 C214.00576,168.065067 223.465193,166.983865 228.695703,166.983865 C233.926213,166.983865 243.385646,168.065067 257.074002,170.227472" id="Path-15" stroke="#000000" stroke-width="4" stroke-linecap="round"></path>
                        <path d="M143.560806,170.666732 C129.211144,170.081052 119.318926,170.081052 113.884154,170.666732 C108.449381,171.252413 100.535607,173.331188 90.1428318,176.903059" id="Path-16" stroke="#000000" stroke-width="4" stroke-linecap="round"></path>
                        <path d="" id="Path-17" stroke="#979797"></path>
                        <path d="M163.592547,250.334518 C170.674475,245.884126 176.238847,243.658931 180.285664,243.658931 C184.33248,243.658931 189.896852,245.884126 196.978781,250.334518" id="Path-14" stroke="#000000" stroke-width="3" stroke-linecap="round"></path>
                        <path d="M169.037226,72.7692521 C166.19382,92.2397146 168.832704,107.816085 176.953879,119.498362 C185.075054,131.18064 193.196229,138.968825 201.317404,142.862917" id="Path-4" stroke="#000000" stroke-width="3.5" stroke-linecap="round"></path>
                        <path d="M146.89943,289.719144 C161.737756,288.606546 172.866501,288.050247 180.285664,288.050247 C187.704827,288.050247 199.390009,288.606546 215.341209,289.719144" id="Path-2" stroke="#000000" stroke-width="3" stroke-linecap="round"></path>
                    </g>
                    <path d="M146.80669,290.388041 C160.596017,301.514019 172.033893,307.077008 181.12032,307.077008 C190.206746,307.077008 201.644622,301.514019 215.433949,290.388041" id="Path-8" stroke="#000000" stroke-width="3" fill="#FFFFFF" stroke-linecap="round"></path>
                </g>
                <polyline id="Path-20" stroke="#000000" stroke-width="2" fill="#FFEADA" points="166.592547 184.668758 149.89943 152.959719 166.592547 139.608545 189.96291 174.655377"></polyline>
                <rect id="Rectangle-2" fill="#FFEADA" x="463.730029" y="1274.45836" width="30.0476106" height="23.364555"></rect>
                <rect id="Rectangle-2-Copy" fill="#FFEADA" x="557.211485" y="1271.12057" width="30.0476106" height="23.364555"></rect>
                <g id="Rectangle-6" transform="translate(142.531465, 123.372594) rotate(51.000000) translate(-142.531465, -123.372594) ">
                    <use fill="#A3F0FF" fill-rule="evenodd" xlink:href="#path-1"></use>
                    <rect stroke="#000000" stroke-width="3" x="113.983854" y="-33.6392169" width="57.0952212" height="314.023623" rx="4"></rect>
                </g>
                <path d="M406.973432,803.829465 C414.763553,903.963272 420.884362,971.831742 425.33586,1007.43487 C432.013107,1060.83957 453.639281,1252.7627 457.052783,1266.11387 C460.466284,1279.46505 506.488339,1274.45836 510.470757,1266.11387 C514.453175,1257.76939 524.182275,1110.18069 525.494562,1039.0924 C526.36942,991.700212 526.36942,913.279232 525.494562,803.829465 L406.973432,803.829465 Z" id="Path-21" stroke="#000000" stroke-width="3" fill="#A3F0FF"></path>
                <path d="M527.163874,803.829465 C533.112158,897.287685 538.325429,961.262062 542.803685,995.752596 C549.52107,1047.4884 573.829724,1252.7627 577.243225,1266.11387 C580.656726,1279.46505 626.678781,1274.45836 630.661199,1266.11387 C634.643618,1257.76939 644.372718,1110.18069 645.685005,1039.0924 C646.559863,991.700212 646.559863,913.279232 645.685005,803.829465 L527.163874,803.829465 Z" id="Path-21-Copy" stroke="#000000" stroke-width="3" fill="#A3F0FF" transform="translate(586.752511, 1039.092403) scale(-1, 1) translate(-586.752511, -1039.092403) "></path>
                <rect id="Rectangle-7" fill="#A3F0FF" x="497.116263" y="807.167259" width="60.0952212" height="103.471601"></rect>
                <path d="M425.33586,478.394592 C460.027275,492.858364 485.623388,500.09025 502.124198,500.09025 C534.0266,500.09025 564.630648,492.858364 593.936342,478.394592 C641.789944,491.745766 674.063304,503.428044 690.756421,513.441425 C715.796096,528.461496 795.923058,646.902749 795.923058,683.668897 C795.923058,725.391316 657.370187,805.498362 657.370187,805.498362 C654.841802,805.455238 412.032896,810.505052 401.156605,805.498362 C393.905745,802.160569 385.272379,761.550747 375.256509,683.668897 C371.385946,659.20111 368.390535,641.876932 366.270276,631.696362 C358.211688,593.002506 348.96548,567.491667 338.531652,555.163844 C332.026587,547.477951 274.157115,424.535888 164.923235,186.337655 C184.954975,175.211676 194.970846,169.648687 194.970846,169.648687 C194.970846,169.648687 274.034276,317.517864 346.87821,411.638721 C368.459364,439.523495 394.611914,461.775452 425.33586,478.394592 Z" id="Path-19" stroke="#000000" stroke-width="3" fill="#FF537B" stroke-linejoin="round"></path>
                <path d="M495.446952,1272.78946 L495.446952,1302.8296" id="Path-23" stroke="#000000" stroke-width="2"></path>
                <path d="M465.399341,1276.12726 L465.399341,1296.15402" id="Line-2" stroke="#000000" stroke-width="2" stroke-linecap="square"></path>
                <g id="Rectangle-8">
                    <use fill="#FFDB9A" fill-rule="evenodd" xlink:href="#path-2"></use>
                    <rect stroke="#000000" stroke-width="2" x="461.391406" y="1295.48512" width="38.0634808" height="44.72911" rx="4"></rect>
                </g>
                <path d="M464.888718,1322.66697 C471.32602,1325.11942 478.478577,1330.02431 486.34639,1330.02431 C494.214204,1330.02431 503.512528,1322.66697 507.804063,1322.66697 C512.095597,1322.66697 516.254458,1334.99512 518.532899,1342.28655 C520.81134,1349.57799 522.824433,1354.5488 518.532899,1357.00124 C517.92199,1357.35035 505.35343,1360.74483 490.637925,1361.90614 C467.20273,1363.75558 436.506778,1363.11172 426.264908,1359.45369 C409.591929,1353.49871 415.998115,1339.32169 426.264908,1332.47676 C436.531701,1325.63183 458.451416,1320.21452 464.888718,1322.66697 Z" id="Path-22" stroke="#000000" fill="#000000" transform="translate(468.537742, 1342.488307) rotate(-11.000000) translate(-468.537742, -1342.488307) "></path>
                <g id="Rectangle-8" transform="translate(570.565978, 1317.849675) scale(-1, 1) translate(-570.565978, -1317.849675) ">
                    <use fill="#FFDB9A" fill-rule="evenodd" xlink:href="#path-3"></use>
                    <rect stroke="#000000" stroke-width="2" x="551.534238" y="1295.48512" width="38.0634808" height="44.72911" rx="4"></rect>
                </g>
                <path d="M586.390847,1321.78771 C592.828149,1319.33526 614.747865,1324.75258 625.014658,1331.5975 C635.28145,1338.44243 641.687636,1352.61945 625.014658,1358.57443 C614.772788,1362.23246 584.076835,1362.87633 560.64164,1361.02688 C545.926135,1359.86557 533.357575,1356.4711 532.746666,1356.12199 C528.455132,1353.66954 530.468226,1348.69873 532.746666,1341.4073 C535.025107,1334.11586 539.183968,1321.78771 543.475503,1321.78771 C547.767037,1321.78771 557.065362,1329.14506 564.933175,1329.14506 C572.800988,1329.14506 579.953546,1324.24016 586.390847,1321.78771 Z" id="Path-22" stroke="#000000" fill="#000000" transform="translate(582.741824, 1341.609050) rotate(6.000000) translate(-582.741824, -1341.609050) "></path>
                <path d="M555.542173,1292.81622 L555.542173,1272.78946" id="Line-3" stroke="#000000" stroke-width="2" stroke-linecap="square"></path>
                <path d="M585.589784,1292.81622 L585.589784,1276.12726" id="Line-4" stroke="#000000" stroke-width="2" stroke-linecap="square"></path>
            </g>
            <g id="Rectangle-3">
                <use fill="#A3F0FF" fill-rule="evenodd" xlink:href="#path-4"></use>
                <rect stroke="#000000" stroke-width="3" x="534.5" y="1343.5" width="67" height="21" rx="5"></rect>
            </g>
            <g id="Rectangle-3-Copy">
                <use fill="#A3F0FF" fill-rule="evenodd" xlink:href="#path-5"></use>
                <rect stroke="#000000" stroke-width="1" x="450.5" y="1342.5" width="69" height="23" rx="4"></rect>
            </g>
            <path d="M666.666667,702 L715,760.026316 L666.666667,819.710526 C659.997585,829.495246 655.55314,837.78472 653.333333,844.578947 C651.113526,851.373175 648.335748,866.846859 645,891 L666.666667,702 Z" id="Line-7" stroke="#000000" stroke-width="3" fill="#FFDB9A" stroke-linecap="round" stroke-linejoin="round"></path>
            <path d="M597,895 C603.630717,911.140884 609.741828,921.69644 615.333333,926.666667 C620.924838,931.636893 629.813727,934.414671 642,935" id="Path-24" stroke-opacity="0.719712409" stroke="#000000" stroke-width="2.5" stroke-linecap="round"></path>
            <path d="M411,895 C417.630717,911.140884 423.741828,921.69644 429.333333,926.666667 C434.924838,931.636893 443.813727,934.414671 456,935" id="Path-24-Copy" stroke-opacity="0.719712409" stroke="#000000" stroke-width="2.5" stroke-linecap="round" transform="translate(433.500000, 915.000000) scale(-1, 1) translate(-433.500000, -915.000000) "></path>
            <g id="Rectangle-3-Copy">
                <use fill="#A3F0FF" fill-rule="evenodd" xlink:href="#path-6"></use>
                <rect stroke="#000000" stroke-width="3" x="451.5" y="1343.5" width="67" height="21" rx="5"></rect>
            </g>
            <path d="M692,605 C679.985588,615.466216 672.769794,627.173113 670.35262,640.12069 C667.935445,653.068267 666.825323,673.694703 667.022253,702" id="Path-25" stroke="#000000" stroke-width="2.5" stroke-linecap="round"></path>
            <path d="M350,656 C365.67171,643.766532 377.338377,632.615017 385,622.545455 C392.661623,612.475892 404.32829,592.960741 420,564" id="Path-28" stroke="#000000" stroke-width="2.5" stroke-linecap="round"></path>
            <path d="M417,569.6875 C442.555556,586.5625 472.555556,595 507,595 C541.444444,595 573.111111,586 602,568" id="Path-29" stroke="#000000" stroke-width="4" stroke-linecap="round"></path>
        </g>
    </g>
</svg>