<?xml version="1.0" encoding="UTF-8"?>
<svg width="1440px" height="1512px" viewBox="0 0 1440 1512" version="1.1" xmlns="http://www.w3.org/2000/svg" xmlns:xlink="http://www.w3.org/1999/xlink">
    <!-- Generator: Sketch 49.3 (51167) - http://www.bohemiancoding.com/sketch -->
    <title>Desktop HD Copy 5fourth</title>
    <desc>Created with Sketch.</desc>
    <defs></defs>
    <g id="Desktop-HD-Copy-5" stroke="none" stroke-width="1" fill="none" fill-rule="evenodd">
        <circle id="Oval-5-Copy-4" fill="#A3F0FF" cx="720" cy="707" r="589"></circle>
        <g id="blisss" transform="translate(210.000000, 289.000000)">
            <g id="face" transform="translate(167.355102, 0.000000)">
                <path d="M26.3956955,752.972508 C-38.0181103,601.382109 31.6853021,387.800884 63.9704155,276.54554 C96.255529,165.290197 111.272773,118.552181 165.958941,65.4017707 C220.645109,12.2513602 273.315284,2.93319972 353.832542,0.434456878 C434.349799,-2.06428596 464.642752,4.97333395 514.867056,54.573885 C565.09136,104.174436 572.521081,169.947764 611.487765,254.889769 C650.454449,339.831775 654.430302,369.868046 665.165936,451.077188 C675.901571,532.28633 681.269388,633.865766 681.269388,731.316737 C681.269388,828.767708 471.924519,926.218678 396.775079,931.632621 C321.625639,937.046564 90.8095013,904.562907 26.3956955,752.972508 Z" id="Path-5" stroke="#000000" stroke-width="3" fill="#008F8A"></path>
                <path d="M453.012017,610.959774 C450.056699,657.319141 451.047014,689.293273 455.982964,706.882171 C463.386888,733.265516 504.643991,768.248673 504.643991,768.248673 C504.643991,768.248673 439.846848,806.214959 344.767554,806.214959 C314.838702,806.214959 265.099366,793.55953 195.549546,768.248673 C214.14826,755.56188 226.583094,739.290614 232.854048,719.434877 C239.125003,699.579139 242.677812,665.22869 243.512478,616.383529" id="Path-9" stroke="#000000" stroke-width="3" fill="#FFEADA"></path>
                <path d="M126.160998,339.442217 C131.450523,381.05097 135.025084,406.493216 136.884683,415.768955 C143.883631,450.679944 152.574046,529.856244 195.864949,573.874341 C238.759688,617.48962 313.991668,665.172709 345.996536,661.104899 C431.786015,650.201079 501.831932,573.030607 522.937336,535.710972 C539.540984,506.351567 550.264668,437.294042 555.10839,328.538397 C489.191569,303.107783 440.934988,277.665537 410.338645,252.211659 C379.742302,226.757781 349.358529,186.777108 319.187324,132.269642 C287.707873,199.373343 260.898661,244.805925 238.759688,268.567388 C216.620716,292.328852 179.087819,315.953795 126.160998,339.442217 Z" id="Path-12" stroke="#000000" stroke-width="3" fill="#FFEADA"></path>
                <path d="M378.482993,321.226273 C400.390102,317.145726 416.641349,315.105452 427.236735,315.105452 C437.83212,315.105452 457.326489,317.145726 485.719841,321.226273" id="Path-15" stroke="#000000" stroke-width="4" stroke-linecap="round"></path>
                <path d="M271.246145,322.055175 C244.133657,320.949972 225.443139,320.949972 215.174591,322.055175 C204.906042,323.160378 189.953627,327.083114 170.317347,333.823382" id="Path-16" stroke="#000000" stroke-width="4" stroke-linecap="round"></path>
                <path d="" id="Path-17" stroke="#979797"></path>
                <path d="M309.094444,472.391578 C322.475156,463.993505 332.988573,459.794469 340.634694,459.794469 C348.280815,459.794469 358.794231,463.993505 372.174943,472.391578" id="Path-14" stroke="#000000" stroke-width="3" stroke-linecap="round"></path>
                <path d="M318.492295,137.162734 C313.119916,173.904301 318.105867,203.297554 333.450149,225.342495 C348.79443,247.387435 364.138712,262.084062 379.482993,269.432375" id="Path-4" stroke="#000000" stroke-width="4" stroke-linecap="round"></path>
                <path d="M277.554195,552.52897 C301.182653,564.241158 322.735157,570.097252 342.211706,570.097252 C361.688256,570.097252 383.24076,564.241158 406.869218,552.52897" id="Path-2" stroke="#000000" stroke-width="4" stroke-linecap="round"></path>
                <path d="M400.293878,377.496829 C413.656313,389.209017 425.844748,395.065111 436.859184,395.065111 C447.873619,395.065111 460.062055,389.209017 473.42449,377.496829" id="Path-2" stroke="#000000" stroke-width="4" stroke-linecap="round"></path>
                <path d="M196.297959,385.200846 C209.660394,396.913034 221.84883,402.769127 232.863265,402.769127 C243.877701,402.769127 256.066136,396.913034 269.428571,385.200846" id="Path-2-Copy" stroke="#000000" stroke-width="4" stroke-linecap="round"></path>
            </g>
            <path d="M360.292892,754.993658 C422.02563,776.33657 467.573444,787.008026 496.936334,787.008026 C553.706074,787.008026 608.165417,776.33657 660.314363,754.993658 C752.893369,781.130775 802.401863,800.011044 808.839844,811.634463 C811.155251,815.8148 856.367998,892.32854 856.367998,1030.80975 C856.367998,1149.07256 209.321598,1133.6765 200.174413,1057.1407 C185.276592,932.488496 216.799008,805.076602 245.556588,794.395957 C276.499643,782.903619 314.745078,769.76952 360.292892,754.993658 Z" id="Path-19" stroke="#000000" stroke-width="3" fill="#FF537B"></path>
            <path d="M82.9315873,365.129602 C71.8531795,376.216728 65.6531482,392.186069 64.3314935,413.037626 C63.9349975,392.22428 58.4383805,376.515069 47.8416426,365.909992 C37.2449047,355.304915 21.5480458,349.803973 0.751066007,349.407165 C21.5862269,348.08447 37.5430113,341.87956 48.6214191,330.792434 C59.6998269,319.705308 65.8998582,303.735967 67.2215129,282.884411 C67.618009,303.697756 73.114626,319.406967 83.7113639,330.012044 C94.3081018,340.617121 110.004961,346.118063 130.80194,346.514871 C109.96678,347.837566 94.0099951,354.042476 82.9315873,365.129602 Z" id="Star" fill="#FFDB9A"></path>
            <path d="M162.212984,251.786789 C155.278324,258.726906 151.397341,268.723104 150.570036,281.775382 C150.321844,268.747023 146.881172,258.913656 140.248019,252.275283 C133.614865,245.63691 123.789231,242.19353 110.771116,241.945144 C123.813131,241.117187 133.801469,237.23315 140.736129,230.293033 C147.670789,223.352916 151.551772,213.356718 152.379078,200.30444 C152.627269,213.332799 156.067941,223.166165 162.701095,229.804539 C169.334248,236.442912 179.159882,239.886292 192.177997,240.134678 C179.135982,240.962635 169.147644,244.846671 162.212984,251.786789 Z" id="Star" fill="#FFDB9A"></path>
        </g>
        <path d="M562,1048 C605.813008,1079.94444 659.934959,1095.25116 724.365854,1093.92014 C788.796748,1092.58912 840.341463,1077.28241 879,1048" id="Path-30" stroke="#000000" stroke-width="5" stroke-linecap="round"></path>
    </g>
</svg>