<?xml version="1.0" encoding="UTF-8"?>
<svg width="1440px" height="1512px" viewBox="0 0 1440 1512" version="1.1" xmlns="http://www.w3.org/2000/svg" xmlns:xlink="http://www.w3.org/1999/xlink">
    <!-- Generator: Sketch 49.3 (51167) - http://www.bohemiancoding.com/sketch -->
    <title>Desktop HD Copy 4third</title>
    <desc>Created with Sketch.</desc>
    <defs>
        <rect id="path-1" x="134.318639" y="1046.94073" width="29.818806" height="26.8446342" rx="1"></rect>
        <rect id="path-2" x="211.847535" y="1046.94073" width="36.8394023" height="40.2669513" rx="1"></rect>
        <polygon id="path-3" points="0 0 96.5511068 0 96.5511068 137.007192 0 137.007192"></polygon>
        <polygon id="path-5" points="0 0 74.5470151 0 74.5470151 140.188645 0 140.188645"></polygon>
        <polygon id="path-7" points="0.811084213 0.116192478 64.7375288 0.116192478 64.7375288 64.0607204 0.811084213 64.0607204"></polygon>
        <polygon id="path-9" points="0 0 110.329582 0 110.329582 56.6720055 0 56.6720055"></polygon>
        <polygon id="path-11" points="0 0 137.166508 0 137.166508 137.205908 0 137.205908"></polygon>
        <polygon id="path-13" points="0 0 54.8681649 0 140.148388 0 140.148388 137.205908 0 137.205908"></polygon>
        <rect id="path-15" x="596.056329" y="1128.34" width="61.5943671" height="20.5320005" rx="4"></rect>
        <rect id="path-16" x="516.863571" y="1128.34" width="61.5943671" height="20.5320005" rx="4"></rect>
        <rect id="path-17" x="134.318639" y="1046.94073" width="29.818806" height="26.8446342" rx="4"></rect>
        <rect id="path-18" x="211.847535" y="1046.94073" width="36.8394023" height="40.2669513" rx="4"></rect>
        <polygon id="path-19" points="0 0 96.5511068 0 96.5511068 137.007192 0 137.007192"></polygon>
        <polygon id="path-21" points="0 0 74.5470151 0 74.5470151 140.188645 0 140.188645"></polygon>
        <polygon id="path-23" points="0.811084213 0.116192478 64.7375288 0.116192478 64.7375288 64.0607204 0.811084213 64.0607204"></polygon>
        <polygon id="path-25" points="0 0 110.329582 0 110.329582 56.6720055 0 56.6720055"></polygon>
        <polygon id="path-27" points="0 0 137.166508 0 137.166508 137.205908 0 137.205908"></polygon>
        <polygon id="path-29" points="0 0 54.8681649 0 140.148388 0 140.148388 137.205908 0 137.205908"></polygon>
        <rect id="path-31" x="596.056329" y="1128.34" width="61.5943671" height="20.5320005" rx="5"></rect>
        <rect id="path-32" x="516.863571" y="1128.34" width="61.5943671" height="20.5320005" rx="5"></rect>
    </defs>
    <g id="Desktop-HD-Copy-4" stroke="none" stroke-width="1" fill="none" fill-rule="evenodd">
        <g id="Group" transform="translate(-29.000000, 160.000000)">
            <circle id="Oval-5-Copy-4" fill="#FFDB9A" cx="593" cy="455" r="449"></circle>
            <path d="M639.270395,1232 L652.343391,1222.46575 L670.444463,1209.44884 C765.042464,1162.60909 835.628581,1129.02244 882.202817,1106.6706 C928.777052,1085.35313 1015.07642,1046.97059 1047.68874,1029.47605 C1103.85399,1025.33378 1074.75072,1039.38881 1099.42553,1029.47605 C1124.10035,1019.87859 1168.24787,977.325649 1210.60459,945.655771 L1222.79006,924.587518 C1243.80255,924.635457 1263.48728,935.13596 1279.20047,924.587518 C1294.91366,914.348599 1306.86615,906.819624 1315.05795,901.830307 C1348.15117,895.354262 1367.85483,890.923906 1374.16892,888.199034 C1380.48301,885.51301 1384.35386,881.653929 1385.78148,876.604108 C1410.06785,873.321365 1426.8281,869.332131 1436.06223,864.537336 C1449.91343,857.551668 1455.24359,823.444295 1432.40942,786.387109 C1417.18665,760.727513 1388.41353,743.027435 1346.09006,733.802041 C1272.00738,726.47223 1234.26911,743.642801 1210.60459,747.134057 C1186.94008,750.949619 1154.94017,745.81343 1133.5498,767.721494 C1096.14425,761.721899 1077.52774,762.844614 1034.47935,786.387109 C991.430958,811.800224 954.187692,858.639837 948.618291,888.199034 C880.174819,924.694306 776.488994,1015.15689 742.887989,1037.87049 C709.286984,1061.55239 726.936674,1047.68625 654.773959,1109.92652 C602.754657,1141.01202 567.496671,1167.48158 549,1189.33521 C558.959146,1190.51941 619.365028,1179.482 620.810459,1175.05864 C621.514277,1172.90737 619.545736,1190.24732 619.504723,1187.04054 C619.393153,1178.31586 626.224549,1158.97775 639.998912,1129.02621 L638.911531,1187.04054 C660.543497,1178.59736 889.14724,1015.3566 948.618291,982 C922.316871,999.683388 847.654148,1040.95363 782.546896,1081.98643 C728.148486,1116.27015 654.811954,1162.0866 644.475146,1170.2183 C621.766631,1188.50537 638.094896,1174.51076 632.724359,1181.98255 L638.911531,1187.04054" id="Path-31" fill-opacity="0.199999988" fill="#D1C6B1"></path>
            <g id="uxall">
                <rect id="Rectangle-2-Copy" fill="#FFEADA" x="543.261157" y="1140.07257" width="20.5314557" height="20.5320005"></rect>
                <rect id="Rectangle-10" fill="#FFEADA" x="619.52085" y="1145.93886" width="20.5314557" height="14.6657146"></rect>
                <g id="UX">
                    <g id="back_me" transform="translate(399.572001, 115.406718)">
                        <path d="M80.644788,608.478375 C87.6025094,697.960489 93.0692905,758.609477 97.0451313,790.42534 C103.008893,838.149134 122.32424,1009.65652 125.372997,1021.58747 C128.421755,1033.51842 169.526203,1029.04431 173.083087,1021.58747 C176.63997,1014.13063 185.329484,882.241612 186.501549,818.715313 C187.282926,776.364447 187.282926,706.285467 186.501549,608.478375 L80.644788,608.478375 Z" id="Path-21" stroke="#000000" fill="#A3F0FF"></path>
                        <path d="M187.99249,608.478375 C193.30518,691.995015 197.961396,749.164143 201.961136,779.98576 C207.960746,826.218186 229.671941,1009.65652 232.720699,1021.58747 C235.769456,1033.51842 276.873905,1029.04431 280.430788,1021.58747 C283.987672,1014.13063 292.677186,882.241612 293.849251,818.715313 C294.630628,776.364447 294.630628,706.285467 293.849251,608.478375 L187.99249,608.478375 Z" id="Path-21-Copy" stroke="#000000" fill="#A3F0FF" transform="translate(241.213887, 818.715313) scale(-1, 1) translate(-241.213887, -818.715313) "></path>
                        <rect id="Rectangle-7" fill="#A3F0FF" x="161.155564" y="611.461112" width="53.6738509" height="92.4648511"></rect>
                        <path d="M89.5904298,317.661505 C120.574954,330.586699 143.436039,337.049296 158.173684,337.049296 C186.667209,337.049296 214.001115,330.586699 240.1754,317.661505 C286.642098,333.490053 311.491103,344.923879 314.722415,351.962982 C315.88455,354.49458 338.57746,400.827413 338.57746,484.694784 C338.57746,584.616478 303.35381,616.603152 303.35381,617.426586 C303.35381,618.917955 144.034301,674.026435 70.767123,599.530164 C-2.50005517,525.033892 8.70654737,351.962982 32.0026751,341.523402 C47.5334269,334.563682 66.7293452,326.609716 89.5904298,317.661505 Z" id="Path-19" stroke="#000000" fill="#FF537B"></path>
                        <path d="M161.155564,1026.06157 L161.155564,1052.90621" id="Path-23" stroke="#000000"></path>
                        <path d="M138.79146,1030.53568 L138.79146,1048.4321" id="Line-2" stroke="#000000" stroke-linecap="square"></path>
                        <g id="Rectangle-8">
                            <use fill="#FFDB9A" fill-rule="evenodd" xlink:href="#path-1"></use>
                            <rect stroke="#000000" stroke-width="1" x="134.818639" y="1047.44073" width="28.818806" height="25.8446342" rx="1"></rect>
                        </g>
                        <path d="M168.704942,1058.63465 C173.4511,1054.71106 193.114969,1051.64287 203.421027,1053.4258 C213.727085,1055.20872 222.677898,1063.72618 210.28408,1073.59173 C202.670812,1079.65194 177.227697,1090.10083 157.20728,1096.3282 C144.635992,1100.23851 133.287584,1101.78232 132.689142,1101.71972 C128.48518,1101.28 128.899931,1096.91051 128.945658,1090.72012 C128.991386,1084.52973 129.324418,1073.96366 132.904466,1072.57012 C136.484513,1071.17657 146.113025,1073.65702 152.676446,1071.10218 C159.239866,1068.54735 163.958785,1062.55824 168.704942,1058.63465 Z" id="Path-22-Copy" stroke="#000000" fill="#000000"></path>
                        <g id="Rectangle-8" transform="translate(230.267236, 1067.074209) scale(-1, 1) translate(-230.267236, -1067.074209) ">
                            <use fill="#FFDB9A" fill-rule="evenodd" xlink:href="#path-2"></use>
                            <rect stroke="#000000" stroke-width="1" x="212.347535" y="1047.44073" width="35.8394023" height="39.2669513" rx="1"></rect>
                        </g>
                        <path d="M252.687999,1062.37275 C258.39671,1057.65343 282.048545,1053.96299 294.444741,1056.10751 C306.840937,1058.25202 317.607035,1068.49688 302.699668,1080.36323 C293.542378,1087.65249 262.939227,1100.22049 238.858533,1107.71081 C223.737704,1112.41416 210.087762,1114.27106 209.367951,1114.19577 C204.311398,1113.66687 204.810263,1108.41121 204.865264,1100.96537 C204.920265,1093.51953 205.320839,1080.81059 209.626944,1079.13442 C213.93305,1077.45826 225.514289,1080.44176 233.408816,1077.36878 C241.303342,1074.29581 246.979289,1067.09207 252.687999,1062.37275 Z" id="Path-22" stroke="#000000" fill="#000000"></path>
                        <path d="M216.320355,1045.44936 L216.320355,1030.53568" id="Line-3" stroke="#000000" stroke-linecap="square"></path>
                        <path d="M243.157281,1045.44936 L243.157281,1027.55294" id="Line-4" stroke="#000000" stroke-linecap="square"></path>
                        <path d="M260.116541,113.344011 C266.080303,118.398093 271.050104,126.393486 275.025944,137.330189 C279.001785,148.266892 278.007825,175.608649 272.044064,219.35546 C261.637472,197.536299 255.673711,179.867724 254.15278,166.349735 C252.631849,152.831747 254.619769,135.163172 260.116541,113.344011 Z" id="Path-27" stroke="#000000" fill="#FFEADA"></path>
                        <path d="M309.317571,489.16889 C310.159311,522.242201 310.159311,546.104098 309.317571,560.754581 C308.475831,575.405064 305.990931,594.792855 301.86287,618.917955" id="Path-26" stroke="#000000" stroke-linecap="round"></path>
                        <path d="M79.7127648,604.004269 C70.9612675,584.462546 64.9975063,568.057492 61.8214812,554.789107 C58.645456,541.520721 56.1605555,522.630052 54.3667796,498.117101" id="Line-6" stroke="#000000" stroke-linecap="round"></path>
                        <path d="M15.6023318,317.661505 C-14.8467423,245.874506 6.30458503,188.400509 21.566093,135.71454 C36.827601,83.02857 41.3652004,56.1414528 67.2159192,30.9715974 C93.0666379,5.80174191 117.964376,1.38904314 156.025718,0.205740966 C194.087061,-0.977561203 231.902171,19.7609009 255.64372,43.2496884 C279.38527,66.738476 256.532636,136.032802 261.607482,174.490122 C266.682327,212.947443 313.71428,277.437842 278.007825,345.997507 C242.30137,414.557173 167.678243,405.65225 131.895675,401.178144 C96.1131081,396.704039 46.0514058,389.448503 15.6023318,317.661505 Z" id="Path-5" stroke="#000000" fill="#55A391"></path>
                    </g>
                    <ellipse id="Oval-4" stroke="#A3F0FF" stroke-width="2" transform="translate(638.815378, 430.085486) rotate(-14.000000) translate(-638.815378, -430.085486) " cx="638.815378" cy="430.085486" rx="548.666031" ry="165.541911"></ellipse>
                    <ellipse id="Oval-4" stroke="#A3F0FF" stroke-width="2" transform="translate(535.940497, 379.378954) rotate(23.000000) translate(-535.940497, -379.378954) " cx="535.940497" cy="379.378954" rx="496.483121" ry="201.334756"></ellipse>
                    <path d="M412.856001,431.837993 C382.300464,360.293547 403.525746,303.013742 418.840614,250.505787 C434.155483,197.997832 438.708948,171.201561 464.650052,146.116749 C490.591155,121.031937 515.575946,116.634147 553.770368,115.454843 C591.964789,114.275539 629.912116,134.943931 653.736676,158.353355 C677.561236,181.762779 654.6287,250.822974 659.721289,289.150356 C664.813879,327.477737 712.010275,391.750238 676.178975,460.078255 C640.347675,528.406272 565.463634,519.531437 529.555956,515.072448 C493.648277,510.61346 443.411538,503.382439 412.856001,431.837993 Z" id="Path-5" stroke="#000000" fill="#008F8A"></path>
                    <g id="Page-1" transform="translate(303.406280, 640.482668) rotate(-25.000000) translate(-303.406280, -640.482668) translate(254.906280, 571.482668)">
                        <mask id="mask-4" fill="white">
                            <use xlink:href="#path-3"></use>
                        </mask>
                        <g id="Clip-2"></g>
                        <path d="M77.8698209,38.5084685 C73.9765666,38.5084685 70.8190454,35.3545567 70.8190454,31.4657529 C70.8190454,27.575418 73.9765666,24.4230372 77.8698209,24.4230372 C81.7646079,24.4230372 84.9221291,27.575418 84.9221291,31.4657529 C84.9221291,35.3545567 81.7646079,38.5084685 77.8698209,38.5084685 Z M19.3177288,124.705184 C15.4244746,124.705184 12.2669534,121.552803 12.2669534,117.662468 C12.2669534,113.773664 15.4244746,110.619753 19.3177288,110.619753 C23.2125159,110.619753 26.3685043,113.773664 26.3685043,117.662468 C26.3685043,121.552803 23.2125159,124.705184 19.3177288,124.705184 Z M19.3177288,12.3279386 C23.2125159,12.3279386 26.3685043,15.4803194 26.3685043,19.3706543 C26.3685043,23.2609892 23.2125159,26.4133699 19.3177288,26.4133699 C15.4244746,26.4133699 12.2669534,23.2609892 12.2669534,19.3706543 C12.2669534,15.4803194 15.4244746,12.3279386 19.3177288,12.3279386 Z M77.8698209,12.1748361 C67.2047566,12.3110974 58.6702527,21.056313 58.8051371,31.7107169 C58.8940382,38.7258741 62.790358,45.1408694 68.9797127,48.4601319 L68.5198795,49.5318495 C64.8657385,58.0091357 56.8738377,63.8193761 47.6741085,64.6889984 L47.0609976,64.6889984 C39.020048,65.4392007 31.4389316,68.7691804 25.448838,74.1813543 L25.448838,37.5898534 C35.5636352,34.2078189 41.0187896,23.2762994 37.6328845,13.1730645 C34.2469795,3.06982962 23.301417,-2.37908886 13.1866197,1.00294568 C3.07335525,4.38651124 -2.38179908,15.3180307 1.00410592,25.4212656 C2.92774141,31.1626099 7.43870494,35.6684169 13.1866197,37.5898534 L13.1866197,99.4432691 C3.08715025,102.868172 -2.32202077,113.822657 1.106802,123.912113 C4.53562477,134.000038 15.5026462,139.403025 25.6021157,135.978122 C35.703118,132.553219 41.112289,121.598734 37.6834662,111.509278 C35.7521668,105.830706 31.2887194,101.37083 25.6021157,99.4432691 C26.8666569,87.5456727 36.3591466,78.1911091 48.2872194,77.0903021 L48.9018631,77.0903021 C62.5420481,75.7200346 74.3505642,67.0345289 79.7091536,54.43113 L81.3967414,50.2973621 C91.811963,48.0008244 98.3921759,37.7062114 96.0930099,27.3028955 C94.1801039,18.6388243 86.5959219,12.3968348 77.7165432,12.1748361 L77.8698209,12.1748361 Z" id="Fill-1" fill="#FF537B" mask="url(#mask-4)"></path>
                    </g>
                    <g id="Page-1" transform="translate(1035.405498, 151.199564)">
                        <mask id="mask-6" fill="white">
                            <use xlink:href="#path-5"></use>
                        </mask>
                        <g id="Clip-2"></g>
                        <path d="M37.2735076,123.88764 C39.9588207,123.88764 42.1352694,126.076865 42.1352694,128.777942 C42.1352694,131.479018 39.9588207,133.668243 37.2735076,133.668243 C34.5881944,133.668243 32.4117457,131.479018 32.4117457,128.777942 C32.4117457,126.076865 34.5881944,123.88764 37.2735076,123.88764 Z M6.48234914,117.367238 L68.064666,117.367238 L68.064666,16.3010053 L6.48234914,16.3010053 L6.48234914,117.367238 Z M9.72352371,0 C4.33669157,0 0,4.36214901 0,9.78060316 L0,130.408042 C0,135.826496 4.33669157,140.188645 9.72352371,140.188645 L64.8234914,140.188645 C70.2103235,140.188645 74.5470151,135.826496 74.5470151,130.408042 L74.5470151,9.78060316 C74.5470151,4.36214901 70.2103235,0 64.8234914,0 L9.72352371,0 Z" id="Fill-1" fill="#FF537B" mask="url(#mask-6)"></path>
                    </g>
                    <g id="Page-1" transform="translate(99.094989, 307.302642)">
                        <g id="Group-3" transform="translate(20.873164, 0.000000)">
                            <mask id="mask-8" fill="white">
                                <use xlink:href="#path-7"></use>
                            </mask>
                            <g id="Clip-2"></g>
                            <path d="M32.7743065,64.0607204 C50.3610577,64.0607204 64.7375288,49.6801196 64.7375288,32.0883168 C64.7375288,14.496514 50.3610577,0.115913243 32.7743065,0.115913243 C15.1875554,0.115913243 0.811084213,14.496514 0.811084213,32.0883168 C0.811084213,49.6801196 15.1875554,64.0607204 32.7743065,64.0607204" id="Fill-1" fill="#FF537B" mask="url(#mask-8)"></path>
                        </g>
                        <g id="Group-6" transform="translate(0.000000, 64.619470)">
                            <mask id="mask-10" fill="white">
                                <use xlink:href="#path-9"></use>
                            </mask>
                            <g id="Clip-5"></g>
                            <path d="M110.09376,23.1651797 C109.255282,21.0796926 108.138709,19.133238 106.879595,17.3258158 C100.45266,7.87160772 90.5292724,1.61514646 79.349565,0.0857892637 C77.9521015,-0.0532432087 76.4148918,0.224821736 75.2983185,1.05901657 C69.4275746,5.36902321 62.4402575,7.59354277 55.1734476,7.59354277 C47.9066378,7.59354277 40.9193207,5.36902321 35.0499743,1.05901657 C33.9320035,0.224821736 32.3947938,-0.192275681 30.9973303,0.0857892637 C19.8176229,1.61514646 9.75588621,7.87160772 3.46730078,17.3258158 C2.20958369,19.133238 1.09161295,21.2187251 0.253134891,23.1651797 C-0.166104138,23.9993745 -0.0263577952,24.9726018 0.392881234,25.8054063 C1.51085198,27.7532513 2.90831541,29.6997059 4.16603249,31.3667052 C6.12248129,34.0097125 8.21867644,36.3732646 10.5943643,38.5977841 C12.5508131,40.5442387 14.7867546,42.3516609 17.022696,44.159083 C28.0626571,52.3619989 41.3385597,56.6720055 55.0337013,56.6720055 C68.7288429,56.6720055 82.0047455,52.3619989 93.0447066,44.159083 C95.2806481,42.489303 97.5165895,40.5442387 99.4730383,38.5977841 C101.70898,36.3732646 103.946319,34.0097125 105.90137,31.3667052 C107.298834,29.5606734 108.556551,27.7532513 109.674521,25.8054063 C110.373253,24.9726018 110.512999,23.9993745 110.09376,23.1651797" id="Fill-4" fill="#FF537B" mask="url(#mask-10)"></path>
                        </g>
                    </g>
                    <g id="Page-1" transform="translate(239.243377, 13.993656)">
                        <mask id="mask-12" fill="white">
                            <use xlink:href="#path-11"></use>
                        </mask>
                        <g id="Clip-2"></g>
                        <path d="M89.290073,88.4318391 C87.4137269,102.461711 82.9955865,116.547702 76.2039618,130.521454 C73.7182708,130.851935 71.1780348,131.018735 68.5832539,131.018735 C54.6135146,131.018735 41.7455831,126.434085 31.3649011,118.700508 C44.0099775,115.6077 53.8389764,111.41121 60.8518977,105.997238 C67.2024876,101.191228 71.1780348,95.1708541 72.3375045,88.5970799 C78.1364112,88.7638794 83.8231112,88.70776 89.290073,88.4318391 M105.139275,86.8854355 C106.188097,94.7296926 110.052995,102.131229 116.514234,108.538204 C108.175091,118.535267 96.6894842,125.936804 83.6579179,129.14185 C89.7872112,115.55314 93.8188618,101.799189 95.4754696,87.9906776 C98.7341404,87.7147568 101.989694,87.3281559 105.139275,86.8854355 M129.656448,81.1955432 C127.99984,89.3157211 124.74117,96.8824984 120.268484,103.456273 C114.912171,97.9877405 111.9309,92.1341664 111.212465,85.8908735 C117.563055,84.7310708 123.692348,83.1301066 129.656448,81.1955432 M7.12356966,79.0427373 C28.8792101,84.2337898 48.373573,87.3281559 66.1536663,88.321159 C65.1593899,92.9619288 62.287209,97.1038586 57.1521921,101.025987 C50.4151123,106.218598 39.7585887,110.638008 25.4008011,113.674696 C15.9582921,104.616075 9.38796404,92.5207673 7.12356966,79.0427373 M128.219579,50.4857133 C129.986835,56.2301662 130.926566,62.3612201 130.926566,68.6575147 C130.926566,70.5359586 130.759815,72.4144025 130.594621,74.2912875 C124.410783,76.4456522 118.005648,78.1588554 111.268568,79.4838989 C113.752701,65.4540273 119.992643,57.6658897 128.219579,50.4857133 M17.2284101,33.306915 C33.3518955,42.5868956 45.4452887,51.7000766 53.5631348,60.0961753 C61.4035809,68.2709138 65.4913348,75.7285699 66.3188595,82.0794251 C48.5387663,81.086422 28.7140168,77.8813758 6.40513483,72.4144025 C6.29604494,71.1439197 6.23994157,69.8734369 6.23994157,68.6575147 C6.23994157,55.511525 10.3261371,43.3600974 17.2284101,33.306915 M74.7686505,6.57221538 C97.8489539,8.83726019 117.176565,23.6403335 125.900639,44.1332992 C115.298661,54.5730825 105.9668,65.4540273 104.972524,80.5330215 C101.989694,80.9757419 99.0084235,81.3623428 95.9726078,81.6382636 C97.6292157,56.2301662 91.1134325,30.82051 74.7686505,6.57221538 M67.0372943,6.24173396 C84.873491,30.9311901 91.8303089,56.3954069 89.8978595,82.0794251 C84.3763528,82.4114654 78.577446,82.5221455 72.6149045,82.3569048 C71.8419247,73.7940065 66.8705427,64.9021857 58.0903651,55.8435653 C49.5314842,46.8940662 37.1622494,37.6702051 20.9826607,28.2811033 C32.0833359,15.1335548 48.5387663,6.73901496 67.0372943,6.24173396 M68.5832539,0 C30.7571146,0 0,30.7659494 0,68.6575147 C0,106.49296 30.7571146,137.205908 68.5832539,137.205908 C106.407835,137.205908 137.166508,106.49296 137.166508,68.6575147 C137.166508,30.7659494 106.407835,0 68.5832539,0" id="Fill-1" fill="#FF537B" mask="url(#mask-12)"></path>
                    </g>
                    <g id="Page-1" transform="translate(923.953160, 536.319813)">
                        <mask id="mask-14" fill="white">
                            <use xlink:href="#path-13"></use>
                        </mask>
                        <g id="Clip-2"></g>
                        <path d="M100.933158,49.5868807 L129.748873,49.5868807 L79.3333168,115.598405 L100.933158,49.5868807 Z M46.139665,49.5868807 L94.0150936,49.5868807 L70.0773793,122.979155 L46.139665,49.5868807 Z M10.4058859,49.5868807 L39.2216003,49.5868807 L60.8214419,115.598405 L10.4058859,49.5868807 Z M112.429823,11.850772 L130.693259,41.9680419 L103.272624,41.9680419 L112.429823,11.850772 Z M27.724936,11.850772 L36.882135,41.9680419 L9.4599074,41.9680419 L27.724936,11.850772 Z M70.0773793,9.88511163 L92.0243982,41.9680419 L48.1303604,41.9680419 L70.0773793,9.88511163 Z M76.8457438,7.68326721 L106.954614,7.68326721 L97.6477147,38.2176685 L76.8457438,7.68326721 Z M33.2001447,7.68326721 L63.3090149,7.68326721 L42.5054514,38.2176685 L33.2001447,7.68326721 Z M111.334144,0.00538238644 C111.217887,0.0168106447 111.101631,0.0358577417 110.985374,0.0644283873 L29.0690536,0.0644283873 L28.7202838,0.0644283873 L28.6709145,0.0644283873 C28.5881016,0.0606189679 28.5052886,0.0606189679 28.4224757,0.0644283873 C27.4908303,0.144426195 26.6356275,0.710124978 26.0830105,1.61295738 L0.602109039,43.5146662 C-0.286537398,44.9870068 -0.181428679,47.0059991 0.850547828,48.3373912 L67.6391756,135.894992 L67.6885448,135.952133 C67.7522471,136.03594 67.8191344,136.115938 67.8876143,136.190222 C68.0102412,136.342598 68.1440159,136.483547 68.2857534,136.607353 C68.3191971,136.628305 68.3510482,136.647352 68.3844919,136.666399 L68.4338612,136.666399 C68.4975634,136.729254 68.5644508,136.790205 68.6329307,136.845442 C68.6488563,136.847346 68.6663744,136.847346 68.6823,136.845442 C68.7635203,136.88925 68.8463333,136.929249 68.9307388,136.965438 C68.9482569,136.984486 68.9641824,137.003533 68.980108,137.024484 C69.0629209,137.045436 69.1457339,137.066388 69.2285468,137.081626 C69.3272853,137.127339 69.4260238,137.167338 69.5279474,137.201622 L69.5773166,137.201622 L69.6266859,137.201622 C69.7094988,137.203527 69.7923117,137.203527 69.8751247,137.201622 L69.9244939,137.201622 C70.0073068,137.203527 70.0901198,137.203527 70.1729327,137.201622 L70.2223019,137.201622 C70.3385586,137.207337 70.4548152,137.207337 70.5710718,137.201622 C70.6538847,137.18448 70.7382902,137.165433 70.8195106,137.140672 C70.8370287,137.123529 70.8529543,137.102578 70.8688798,137.081626 C70.9692109,137.068293 71.0695419,137.047341 71.1682804,137.024484 C71.2017241,137.003533 71.2335752,136.984486 71.2670189,136.965438 C71.4214969,136.898774 71.5711972,136.818776 71.7145272,136.72735 C71.7304528,136.706398 71.7479709,136.687351 71.7638965,136.666399 C71.8323764,136.611162 71.8992638,136.552116 71.962966,136.489261 C71.9788916,136.468309 71.9964097,136.449262 72.0123353,136.42831 C72.0808152,136.373074 72.1477026,136.314028 72.2114048,136.251172 L72.2607741,136.190222 C72.4072892,136.026417 72.541064,135.849279 72.6589131,135.654998 L139.297841,48.3354865 C140.329817,47.0059991 140.434926,44.9870068 139.546279,43.5146662 L114.065378,1.61105267 C113.441096,0.553938782 112.409119,-0.0517589047 111.327774,0.00347767674 L111.334144,0.00538238644 Z" id="Fill-1" fill="#FF537B" mask="url(#mask-14)"></path>
                    </g>
                </g>
                <g id="Rectangle-3-Copy-2">
                    <use fill="#A3F0FF" fill-rule="evenodd" xlink:href="#path-15"></use>
                    <rect stroke="#000000" stroke-width="1" x="596.556329" y="1128.84" width="60.5943671" height="19.5320005" rx="4"></rect>
                </g>
                <g id="Rectangle-3-Copy-3">
                    <use fill="#A3F0FF" fill-rule="evenodd" xlink:href="#path-16"></use>
                    <rect stroke="#000000" stroke-width="1" x="517.363571" y="1128.84" width="60.5943671" height="19.5320005" rx="4"></rect>
                </g>
            </g>
            <g id="uxall">
                <rect id="Rectangle-2-Copy" fill="#FFEADA" x="539.261157" y="1140.07257" width="20.5314557" height="20.5320005"></rect>
                <rect id="Rectangle-10" fill="#FFEADA" x="619.52085" y="1146.93886" width="20.5314557" height="14.6657146"></rect>
                <g id="UX">
                    <g id="back_me" transform="translate(399.572001, 115.406718)">
                        <path d="M80.644788,608.478375 C87.6025094,697.960489 93.0692905,758.609477 97.0451313,790.42534 C103.008893,838.149134 122.32424,1009.65652 125.372997,1021.58747 C128.421755,1033.51842 169.526203,1029.04431 173.083087,1021.58747 C176.63997,1014.13063 185.329484,882.241612 186.501549,818.715313 C187.282926,776.364447 187.282926,706.285467 186.501549,608.478375 L80.644788,608.478375 Z" id="Path-21" stroke="#000000" stroke-width="3" fill="#A3F0FF"></path>
                        <path d="M187.99249,608.478375 C193.30518,691.995015 197.961396,749.164143 201.961136,779.98576 C207.960746,826.218186 229.671941,1009.65652 232.720699,1021.58747 C235.769456,1033.51842 276.873905,1029.04431 280.430788,1021.58747 C283.987672,1014.13063 292.677186,882.241612 293.849251,818.715313 C294.630628,776.364447 294.630628,706.285467 293.849251,608.478375 L187.99249,608.478375 Z" id="Path-21-Copy" stroke="#000000" stroke-width="3" fill="#A3F0FF" transform="translate(241.213887, 818.715313) scale(-1, 1) translate(-241.213887, -818.715313) "></path>
                        <rect id="Rectangle-7" fill="#A3F0FF" x="161.155564" y="611.461112" width="53.6738509" height="92.4648511"></rect>
                        <path d="M89.5904298,317.661505 C120.574954,330.586699 143.436039,337.049296 158.173684,337.049296 C186.667209,337.049296 214.001115,330.586699 240.1754,317.661505 C286.642098,333.490053 311.491103,344.923879 314.722415,351.962982 C315.88455,354.49458 338.57746,400.827413 338.57746,484.694784 C338.57746,584.616478 303.35381,616.603152 303.35381,617.426586 C303.35381,618.917955 144.034301,674.026435 70.767123,599.530164 C-2.50005517,525.033892 8.70654737,351.962982 32.0026751,341.523402 C47.5334269,334.563682 66.7293452,326.609716 89.5904298,317.661505 Z" id="Path-19" stroke="#000000" stroke-width="3" fill="#FF537B"></path>
                        <path d="M161.155564,1026.06157 L161.155564,1052.90621" id="Path-23" stroke="#000000" stroke-width="2"></path>
                        <path d="M138.79146,1030.53568 L138.79146,1048.4321" id="Line-2" stroke="#000000" stroke-width="2" stroke-linecap="square"></path>
                        <g id="Rectangle-8">
                            <use fill="#FFDB9A" fill-rule="evenodd" xlink:href="#path-17"></use>
                            <rect stroke="#000000" stroke-width="2" x="135.318639" y="1047.94073" width="27.818806" height="24.8446342" rx="4"></rect>
                        </g>
                        <path d="M168.704942,1058.63465 C173.4511,1054.71106 193.114969,1051.64287 203.421027,1053.4258 C213.727085,1055.20872 222.677898,1063.72618 210.28408,1073.59173 C202.670812,1079.65194 177.227697,1090.10083 157.20728,1096.3282 C144.635992,1100.23851 133.287584,1101.78232 132.689142,1101.71972 C128.48518,1101.28 128.899931,1096.91051 128.945658,1090.72012 C128.991386,1084.52973 129.324418,1073.96366 132.904466,1072.57012 C136.484513,1071.17657 146.113025,1073.65702 152.676446,1071.10218 C159.239866,1068.54735 163.958785,1062.55824 168.704942,1058.63465 Z" id="Path-22-Copy" stroke="#000000" fill="#000000"></path>
                        <g id="Rectangle-8" transform="translate(230.267236, 1067.074209) scale(-1, 1) translate(-230.267236, -1067.074209) ">
                            <use fill="#FFDB9A" fill-rule="evenodd" xlink:href="#path-18"></use>
                            <rect stroke="#000000" stroke-width="2" x="212.847535" y="1047.94073" width="34.8394023" height="38.2669513" rx="4"></rect>
                        </g>
                        <path d="M252.687999,1062.37275 C258.39671,1057.65343 282.048545,1053.96299 294.444741,1056.10751 C306.840937,1058.25202 317.607035,1068.49688 302.699668,1080.36323 C293.542378,1087.65249 262.939227,1100.22049 238.858533,1107.71081 C223.737704,1112.41416 210.087762,1114.27106 209.367951,1114.19577 C204.311398,1113.66687 204.810263,1108.41121 204.865264,1100.96537 C204.920265,1093.51953 205.320839,1080.81059 209.626944,1079.13442 C213.93305,1077.45826 225.514289,1080.44176 233.408816,1077.36878 C241.303342,1074.29581 246.979289,1067.09207 252.687999,1062.37275 Z" id="Path-22" stroke="#000000" fill="#000000"></path>
                        <path d="M216.320355,1045.44936 L216.320355,1030.53568" id="Line-3" stroke="#000000" stroke-width="2" stroke-linecap="square"></path>
                        <path d="M243.157281,1045.44936 L243.157281,1027.55294" id="Line-4" stroke="#000000" stroke-width="2" stroke-linecap="square"></path>
                        <path d="M260.116541,113.344011 C266.080303,118.398093 271.050104,126.393486 275.025944,137.330189 C279.001785,148.266892 278.007825,175.608649 272.044064,219.35546 C261.637472,197.536299 255.673711,179.867724 254.15278,166.349735 C252.631849,152.831747 254.619769,135.163172 260.116541,113.344011 Z" id="Path-27" stroke="#000000" stroke-width="2" fill="#FFEADA"></path>
                        <path d="M309.317571,489.16889 C310.159311,522.242201 310.159311,546.104098 309.317571,560.754581 C308.475831,575.405064 305.990931,594.792855 301.86287,618.917955" id="Path-26" stroke="#000000" stroke-width="2" stroke-linecap="round"></path>
                        <path d="M79.7127648,604.004269 C70.9612675,584.462546 64.9975063,568.057492 61.8214812,554.789107 C58.645456,541.520721 56.1605555,522.630052 54.3667796,498.117101" id="Line-6" stroke="#000000" stroke-width="2" stroke-linecap="round"></path>
                        <path d="M15.6023318,317.661505 C-14.8467423,245.874506 6.30458503,188.400509 21.566093,135.71454 C36.827601,83.02857 41.3652004,56.1414528 67.2159192,30.9715974 C93.0666379,5.80174191 117.964376,1.38904314 156.025718,0.205740966 C194.087061,-0.977561203 231.902171,19.7609009 255.64372,43.2496884 C279.38527,66.738476 256.532636,136.032802 261.607482,174.490122 C266.682327,212.947443 313.71428,277.437842 278.007825,345.997507 C242.30137,414.557173 167.678243,405.65225 131.895675,401.178144 C96.1131081,396.704039 46.0514058,389.448503 15.6023318,317.661505 Z" id="Path-5" stroke="#000000" fill="#55A391"></path>
                    </g>
                    <ellipse id="Oval-4" stroke="#A3F0FF" stroke-width="3" transform="translate(638.815378, 430.085486) rotate(-14.000000) translate(-638.815378, -430.085486) " cx="638.815378" cy="430.085486" rx="548.666031" ry="165.541911"></ellipse>
                    <ellipse id="Oval-4" stroke="#A3F0FF" stroke-width="3" transform="translate(535.940497, 379.378954) rotate(23.000000) translate(-535.940497, -379.378954) " cx="535.940497" cy="379.378954" rx="496.483121" ry="201.334756"></ellipse>
                    <path d="M412.856001,431.837993 C382.300464,360.293547 403.525746,303.013742 418.840614,250.505787 C434.155483,197.997832 438.708948,171.201561 464.650052,146.116749 C490.591155,121.031937 515.575946,116.634147 553.770368,115.454843 C591.964789,114.275539 629.912116,134.943931 653.736676,158.353355 C677.561236,181.762779 654.6287,250.822974 659.721289,289.150356 C664.813879,327.477737 712.010275,391.750238 676.178975,460.078255 C640.347675,528.406272 565.463634,519.531437 529.555956,515.072448 C493.648277,510.61346 443.411538,503.382439 412.856001,431.837993 Z" id="Path-5" stroke="#000000" stroke-width="2" fill="#008F8A"></path>
                    <g id="Page-1" transform="translate(303.406280, 640.482668) rotate(-25.000000) translate(-303.406280, -640.482668) translate(254.906280, 571.482668)">
                        <mask id="mask-20" fill="white">
                            <use xlink:href="#path-19"></use>
                        </mask>
                        <g id="Clip-2"></g>
                        <path d="M77.8698209,38.5084685 C73.9765666,38.5084685 70.8190454,35.3545567 70.8190454,31.4657529 C70.8190454,27.575418 73.9765666,24.4230372 77.8698209,24.4230372 C81.7646079,24.4230372 84.9221291,27.575418 84.9221291,31.4657529 C84.9221291,35.3545567 81.7646079,38.5084685 77.8698209,38.5084685 Z M19.3177288,124.705184 C15.4244746,124.705184 12.2669534,121.552803 12.2669534,117.662468 C12.2669534,113.773664 15.4244746,110.619753 19.3177288,110.619753 C23.2125159,110.619753 26.3685043,113.773664 26.3685043,117.662468 C26.3685043,121.552803 23.2125159,124.705184 19.3177288,124.705184 Z M19.3177288,12.3279386 C23.2125159,12.3279386 26.3685043,15.4803194 26.3685043,19.3706543 C26.3685043,23.2609892 23.2125159,26.4133699 19.3177288,26.4133699 C15.4244746,26.4133699 12.2669534,23.2609892 12.2669534,19.3706543 C12.2669534,15.4803194 15.4244746,12.3279386 19.3177288,12.3279386 Z M77.8698209,12.1748361 C67.2047566,12.3110974 58.6702527,21.056313 58.8051371,31.7107169 C58.8940382,38.7258741 62.790358,45.1408694 68.9797127,48.4601319 L68.5198795,49.5318495 C64.8657385,58.0091357 56.8738377,63.8193761 47.6741085,64.6889984 L47.0609976,64.6889984 C39.020048,65.4392007 31.4389316,68.7691804 25.448838,74.1813543 L25.448838,37.5898534 C35.5636352,34.2078189 41.0187896,23.2762994 37.6328845,13.1730645 C34.2469795,3.06982962 23.301417,-2.37908886 13.1866197,1.00294568 C3.07335525,4.38651124 -2.38179908,15.3180307 1.00410592,25.4212656 C2.92774141,31.1626099 7.43870494,35.6684169 13.1866197,37.5898534 L13.1866197,99.4432691 C3.08715025,102.868172 -2.32202077,113.822657 1.106802,123.912113 C4.53562477,134.000038 15.5026462,139.403025 25.6021157,135.978122 C35.703118,132.553219 41.112289,121.598734 37.6834662,111.509278 C35.7521668,105.830706 31.2887194,101.37083 25.6021157,99.4432691 C26.8666569,87.5456727 36.3591466,78.1911091 48.2872194,77.0903021 L48.9018631,77.0903021 C62.5420481,75.7200346 74.3505642,67.0345289 79.7091536,54.43113 L81.3967414,50.2973621 C91.811963,48.0008244 98.3921759,37.7062114 96.0930099,27.3028955 C94.1801039,18.6388243 86.5959219,12.3968348 77.7165432,12.1748361 L77.8698209,12.1748361 Z" id="Fill-1" fill="#FF537B" mask="url(#mask-20)"></path>
                    </g>
                    <g id="Page-1" transform="translate(1035.405498, 151.199564)">
                        <mask id="mask-22" fill="white">
                            <use xlink:href="#path-21"></use>
                        </mask>
                        <g id="Clip-2"></g>
                        <path d="M37.2735076,123.88764 C39.9588207,123.88764 42.1352694,126.076865 42.1352694,128.777942 C42.1352694,131.479018 39.9588207,133.668243 37.2735076,133.668243 C34.5881944,133.668243 32.4117457,131.479018 32.4117457,128.777942 C32.4117457,126.076865 34.5881944,123.88764 37.2735076,123.88764 Z M6.48234914,117.367238 L68.064666,117.367238 L68.064666,16.3010053 L6.48234914,16.3010053 L6.48234914,117.367238 Z M9.72352371,0 C4.33669157,0 0,4.36214901 0,9.78060316 L0,130.408042 C0,135.826496 4.33669157,140.188645 9.72352371,140.188645 L64.8234914,140.188645 C70.2103235,140.188645 74.5470151,135.826496 74.5470151,130.408042 L74.5470151,9.78060316 C74.5470151,4.36214901 70.2103235,0 64.8234914,0 L9.72352371,0 Z" id="Fill-1" fill="#FF537B" mask="url(#mask-22)"></path>
                    </g>
                    <g id="Page-1" transform="translate(99.094989, 307.302642)">
                        <g id="Group-3" transform="translate(20.873164, 0.000000)">
                            <mask id="mask-24" fill="white">
                                <use xlink:href="#path-23"></use>
                            </mask>
                            <g id="Clip-2"></g>
                            <path d="M32.7743065,64.0607204 C50.3610577,64.0607204 64.7375288,49.6801196 64.7375288,32.0883168 C64.7375288,14.496514 50.3610577,0.115913243 32.7743065,0.115913243 C15.1875554,0.115913243 0.811084213,14.496514 0.811084213,32.0883168 C0.811084213,49.6801196 15.1875554,64.0607204 32.7743065,64.0607204" id="Fill-1" fill="#FF537B" mask="url(#mask-24)"></path>
                        </g>
                        <g id="Group-6" transform="translate(0.000000, 64.619470)">
                            <mask id="mask-26" fill="white">
                                <use xlink:href="#path-25"></use>
                            </mask>
                            <g id="Clip-5"></g>
                            <path d="M110.09376,23.1651797 C109.255282,21.0796926 108.138709,19.133238 106.879595,17.3258158 C100.45266,7.87160772 90.5292724,1.61514646 79.349565,0.0857892637 C77.9521015,-0.0532432087 76.4148918,0.224821736 75.2983185,1.05901657 C69.4275746,5.36902321 62.4402575,7.59354277 55.1734476,7.59354277 C47.9066378,7.59354277 40.9193207,5.36902321 35.0499743,1.05901657 C33.9320035,0.224821736 32.3947938,-0.192275681 30.9973303,0.0857892637 C19.8176229,1.61514646 9.75588621,7.87160772 3.46730078,17.3258158 C2.20958369,19.133238 1.09161295,21.2187251 0.253134891,23.1651797 C-0.166104138,23.9993745 -0.0263577952,24.9726018 0.392881234,25.8054063 C1.51085198,27.7532513 2.90831541,29.6997059 4.16603249,31.3667052 C6.12248129,34.0097125 8.21867644,36.3732646 10.5943643,38.5977841 C12.5508131,40.5442387 14.7867546,42.3516609 17.022696,44.159083 C28.0626571,52.3619989 41.3385597,56.6720055 55.0337013,56.6720055 C68.7288429,56.6720055 82.0047455,52.3619989 93.0447066,44.159083 C95.2806481,42.489303 97.5165895,40.5442387 99.4730383,38.5977841 C101.70898,36.3732646 103.946319,34.0097125 105.90137,31.3667052 C107.298834,29.5606734 108.556551,27.7532513 109.674521,25.8054063 C110.373253,24.9726018 110.512999,23.9993745 110.09376,23.1651797" id="Fill-4" fill="#FF537B" mask="url(#mask-26)"></path>
                        </g>
                    </g>
                    <g id="Page-1" transform="translate(239.243377, 13.993656)">
                        <mask id="mask-28" fill="white">
                            <use xlink:href="#path-27"></use>
                        </mask>
                        <g id="Clip-2"></g>
                        <path d="M89.290073,88.4318391 C87.4137269,102.461711 82.9955865,116.547702 76.2039618,130.521454 C73.7182708,130.851935 71.1780348,131.018735 68.5832539,131.018735 C54.6135146,131.018735 41.7455831,126.434085 31.3649011,118.700508 C44.0099775,115.6077 53.8389764,111.41121 60.8518977,105.997238 C67.2024876,101.191228 71.1780348,95.1708541 72.3375045,88.5970799 C78.1364112,88.7638794 83.8231112,88.70776 89.290073,88.4318391 M105.139275,86.8854355 C106.188097,94.7296926 110.052995,102.131229 116.514234,108.538204 C108.175091,118.535267 96.6894842,125.936804 83.6579179,129.14185 C89.7872112,115.55314 93.8188618,101.799189 95.4754696,87.9906776 C98.7341404,87.7147568 101.989694,87.3281559 105.139275,86.8854355 M129.656448,81.1955432 C127.99984,89.3157211 124.74117,96.8824984 120.268484,103.456273 C114.912171,97.9877405 111.9309,92.1341664 111.212465,85.8908735 C117.563055,84.7310708 123.692348,83.1301066 129.656448,81.1955432 M7.12356966,79.0427373 C28.8792101,84.2337898 48.373573,87.3281559 66.1536663,88.321159 C65.1593899,92.9619288 62.287209,97.1038586 57.1521921,101.025987 C50.4151123,106.218598 39.7585887,110.638008 25.4008011,113.674696 C15.9582921,104.616075 9.38796404,92.5207673 7.12356966,79.0427373 M128.219579,50.4857133 C129.986835,56.2301662 130.926566,62.3612201 130.926566,68.6575147 C130.926566,70.5359586 130.759815,72.4144025 130.594621,74.2912875 C124.410783,76.4456522 118.005648,78.1588554 111.268568,79.4838989 C113.752701,65.4540273 119.992643,57.6658897 128.219579,50.4857133 M17.2284101,33.306915 C33.3518955,42.5868956 45.4452887,51.7000766 53.5631348,60.0961753 C61.4035809,68.2709138 65.4913348,75.7285699 66.3188595,82.0794251 C48.5387663,81.086422 28.7140168,77.8813758 6.40513483,72.4144025 C6.29604494,71.1439197 6.23994157,69.8734369 6.23994157,68.6575147 C6.23994157,55.511525 10.3261371,43.3600974 17.2284101,33.306915 M74.7686505,6.57221538 C97.8489539,8.83726019 117.176565,23.6403335 125.900639,44.1332992 C115.298661,54.5730825 105.9668,65.4540273 104.972524,80.5330215 C101.989694,80.9757419 99.0084235,81.3623428 95.9726078,81.6382636 C97.6292157,56.2301662 91.1134325,30.82051 74.7686505,6.57221538 M67.0372943,6.24173396 C84.873491,30.9311901 91.8303089,56.3954069 89.8978595,82.0794251 C84.3763528,82.4114654 78.577446,82.5221455 72.6149045,82.3569048 C71.8419247,73.7940065 66.8705427,64.9021857 58.0903651,55.8435653 C49.5314842,46.8940662 37.1622494,37.6702051 20.9826607,28.2811033 C32.0833359,15.1335548 48.5387663,6.73901496 67.0372943,6.24173396 M68.5832539,0 C30.7571146,0 0,30.7659494 0,68.6575147 C0,106.49296 30.7571146,137.205908 68.5832539,137.205908 C106.407835,137.205908 137.166508,106.49296 137.166508,68.6575147 C137.166508,30.7659494 106.407835,0 68.5832539,0" id="Fill-1" fill="#FF537B" mask="url(#mask-28)"></path>
                    </g>
                    <g id="Page-1" transform="translate(923.953160, 536.319813)">
                        <mask id="mask-30" fill="white">
                            <use xlink:href="#path-29"></use>
                        </mask>
                        <g id="Clip-2"></g>
                        <path d="M100.933158,49.5868807 L129.748873,49.5868807 L79.3333168,115.598405 L100.933158,49.5868807 Z M46.139665,49.5868807 L94.0150936,49.5868807 L70.0773793,122.979155 L46.139665,49.5868807 Z M10.4058859,49.5868807 L39.2216003,49.5868807 L60.8214419,115.598405 L10.4058859,49.5868807 Z M112.429823,11.850772 L130.693259,41.9680419 L103.272624,41.9680419 L112.429823,11.850772 Z M27.724936,11.850772 L36.882135,41.9680419 L9.4599074,41.9680419 L27.724936,11.850772 Z M70.0773793,9.88511163 L92.0243982,41.9680419 L48.1303604,41.9680419 L70.0773793,9.88511163 Z M76.8457438,7.68326721 L106.954614,7.68326721 L97.6477147,38.2176685 L76.8457438,7.68326721 Z M33.2001447,7.68326721 L63.3090149,7.68326721 L42.5054514,38.2176685 L33.2001447,7.68326721 Z M111.334144,0.00538238644 C111.217887,0.0168106447 111.101631,0.0358577417 110.985374,0.0644283873 L29.0690536,0.0644283873 L28.7202838,0.0644283873 L28.6709145,0.0644283873 C28.5881016,0.0606189679 28.5052886,0.0606189679 28.4224757,0.0644283873 C27.4908303,0.144426195 26.6356275,0.710124978 26.0830105,1.61295738 L0.602109039,43.5146662 C-0.286537398,44.9870068 -0.181428679,47.0059991 0.850547828,48.3373912 L67.6391756,135.894992 L67.6885448,135.952133 C67.7522471,136.03594 67.8191344,136.115938 67.8876143,136.190222 C68.0102412,136.342598 68.1440159,136.483547 68.2857534,136.607353 C68.3191971,136.628305 68.3510482,136.647352 68.3844919,136.666399 L68.4338612,136.666399 C68.4975634,136.729254 68.5644508,136.790205 68.6329307,136.845442 C68.6488563,136.847346 68.6663744,136.847346 68.6823,136.845442 C68.7635203,136.88925 68.8463333,136.929249 68.9307388,136.965438 C68.9482569,136.984486 68.9641824,137.003533 68.980108,137.024484 C69.0629209,137.045436 69.1457339,137.066388 69.2285468,137.081626 C69.3272853,137.127339 69.4260238,137.167338 69.5279474,137.201622 L69.5773166,137.201622 L69.6266859,137.201622 C69.7094988,137.203527 69.7923117,137.203527 69.8751247,137.201622 L69.9244939,137.201622 C70.0073068,137.203527 70.0901198,137.203527 70.1729327,137.201622 L70.2223019,137.201622 C70.3385586,137.207337 70.4548152,137.207337 70.5710718,137.201622 C70.6538847,137.18448 70.7382902,137.165433 70.8195106,137.140672 C70.8370287,137.123529 70.8529543,137.102578 70.8688798,137.081626 C70.9692109,137.068293 71.0695419,137.047341 71.1682804,137.024484 C71.2017241,137.003533 71.2335752,136.984486 71.2670189,136.965438 C71.4214969,136.898774 71.5711972,136.818776 71.7145272,136.72735 C71.7304528,136.706398 71.7479709,136.687351 71.7638965,136.666399 C71.8323764,136.611162 71.8992638,136.552116 71.962966,136.489261 C71.9788916,136.468309 71.9964097,136.449262 72.0123353,136.42831 C72.0808152,136.373074 72.1477026,136.314028 72.2114048,136.251172 L72.2607741,136.190222 C72.4072892,136.026417 72.541064,135.849279 72.6589131,135.654998 L139.297841,48.3354865 C140.329817,47.0059991 140.434926,44.9870068 139.546279,43.5146662 L114.065378,1.61105267 C113.441096,0.553938782 112.409119,-0.0517589047 111.327774,0.00347767674 L111.334144,0.00538238644 Z" id="Fill-1" fill="#FF537B" mask="url(#mask-30)"></path>
                    </g>
                </g>
                <g id="Rectangle-3-Copy-2">
                    <use fill="#A3F0FF" fill-rule="evenodd" xlink:href="#path-31"></use>
                    <rect stroke="#000000" stroke-width="3" x="597.556329" y="1129.84" width="58.5943671" height="17.5320005" rx="5"></rect>
                </g>
                <g id="Rectangle-3-Copy-3">
                    <use fill="#A3F0FF" fill-rule="evenodd" xlink:href="#path-32"></use>
                    <rect stroke="#000000" stroke-width="3" x="518.363571" y="1129.84" width="58.5943671" height="17.5320005" rx="5"></rect>
                </g>
            </g>
        </g>
    </g>
</svg>